<svg xmlns="http://www.w3.org/2000/svg" width="1026" height="1097" viewBox="0 0 1026 1097" fill="none">
    <path opacity="0.1" d="M508.104 18.913C508.201 18.5611 508.286 18.2092 508.384 17.8574C510.144 11.395 512.62 4.29284 518.459 1.34961C532.783 -5.84851 542.531 17.3135 543.15 33.7571C545.869 105.45 556.357 176.792 574.384 246.053C583.549 281.213 598.796 320.435 632.228 331.855C684.851 349.866 747.174 263.425 772.411 285.66C788.872 298.968 753.862 357.545 738.458 385.954C726.173 425.834 722.92 467.468 753.486 490.821C784.041 514.144 801.861 509.953 839.201 517.183C892.529 527.516 949.814 526.652 1002.36 540.601C1014.86 543.928 1030.73 554.486 1024.66 566.29C1021.97 571.505 1012.79 581.102 1007.28 582.702C954.548 598.186 901.621 592.043 847.334 599.85C797.964 606.951 755.222 618.372 738.458 666.935C723.478 710.284 757.007 765.119 777.146 806.195C779.865 811.762 782.475 818.48 779.622 823.983C775.349 832.301 759.301 831.85 751.07 827.883C725.59 815.566 709.591 792.663 686.332 776.315C663.074 759.967 645.192 748.771 619.421 760.48C590.748 773.5 579.216 809.011 574.639 841.067C563.01 922.357 573.34 1094.63 527.308 1097C491.983 1095.08 497.033 899.739 474.115 804.98C471.298 787.096 467.243 767.165 452.616 757.184C432.938 743.747 406.96 756.064 386.445 768.157C353.098 787.865 334.853 806.964 300.864 825.422C291.419 830.541 278.612 835.148 271.292 827.182C266 821.423 266.922 812.242 268.84 804.564C278.212 767.326 302.369 736.165 318.247 701.359C324.984 686.61 328.48 658.938 322.763 643.742C314.192 620.996 271.195 614.406 247.839 611.046C167.939 599.497 120.778 598.474 40.902 586.924C27.2333 584.942 -14.1252 573.777 4.93338 552.886C12.047 545.079 35.7429 544.823 45.6121 542.713C60.7375 539.481 78.1814 539.161 93.3069 535.802C152.51 522.654 177.31 523.166 236.113 508.258C258.728 502.53 310.478 489.798 323.103 469.548C336.614 447.856 332.972 409.531 322.763 385.954C312.553 362.375 285.641 337.486 281.307 312.053C280.19 305.558 280.13 297.976 284.803 293.465C289.319 289.115 296.372 289.498 302.405 290.842C332.777 297.497 345.002 318.835 373.055 332.623C401.109 346.411 436.993 349.899 455.238 323.921C461.769 314.643 464.488 303.126 466.782 291.897C485.149 201.714 483.887 107.658 508.068 18.977L508.104 18.913Z" fill="#E2F3FD"/>
</svg>