<svg width="166" height="54" viewBox="0 0 166 54" fill="none" xmlns="http://www.w3.org/2000/svg">
<path d="M71.4936 22.5947C73.3416 22.5947 74.9864 23.0158 76.4272 23.8579C77.8995 24.7001 79.0584 25.9146 79.9042 27.5017C80.7501 29.0888 81.1728 30.935 81.1728 33.0402C81.1728 35.016 80.6717 36.8948 79.6692 38.6762C78.667 40.4575 77.3514 41.8988 75.7225 43C74.0936 44.1012 72.3863 44.6518 70.6008 44.6518C68.8155 44.6518 67.218 44.2472 65.8082 43.4375C64.3984 42.5953 63.2865 41.3807 62.472 39.7934C61.689 38.2065 61.2976 36.3442 61.2976 34.2064C61.2976 32.1334 61.7673 30.2063 62.7071 28.4248C63.6468 26.6434 64.8999 25.2345 66.466 24.198C68.0321 23.1292 69.7083 22.5947 71.4936 22.5947ZM70.3188 25.364C68.6588 25.364 67.3274 25.9794 66.3252 27.2102C65.3226 28.441 64.8215 30.0767 64.8215 32.1172C64.8215 33.8988 65.166 35.583 65.8551 37.1699C66.5757 38.7572 67.5155 40.0364 68.6743 41.0081C69.8646 41.9473 71.1333 42.4169 72.4802 42.4169C74.0467 42.4169 75.2214 41.7853 76.0045 40.5224C76.7875 39.2268 77.1789 37.4129 77.1789 35.081C77.1789 33.2022 76.85 31.5342 76.1922 30.0767C75.5658 28.5868 74.72 27.437 73.655 26.6272C72.6214 25.7851 71.5094 25.364 70.3188 25.364Z" fill="#414755"/>
<path d="M138.353 22.5947C140.295 22.5947 141.798 23.0482 142.863 23.9551C143.928 24.8296 144.461 26.1576 144.461 27.939V38.9192C144.461 40.182 145.15 40.8137 146.528 40.8137C147.374 40.8137 148.094 40.6031 148.69 40.182C148.752 40.1174 148.846 40.085 148.972 40.085C149.191 40.085 149.301 40.2309 149.301 40.5224C149.238 41.6237 148.8 42.5953 147.985 43.4375C147.202 44.2472 146.278 44.6518 145.213 44.6518C144.179 44.6518 143.333 44.3282 142.676 43.6802C142.017 43 141.595 42.1093 141.407 41.0081C141.313 40.5546 141.141 40.328 140.89 40.328C140.702 40.328 140.514 40.506 140.326 40.8625C139.762 42.0283 139.073 42.9515 138.259 43.6316C137.475 44.3118 136.348 44.6518 134.876 44.6518C133.623 44.6518 132.589 44.2796 131.775 43.5345C130.96 42.7895 130.553 41.8503 130.553 40.7166C130.553 39.9069 130.741 39.1133 131.117 38.3361C131.524 37.5585 132.401 36.7164 133.748 35.8097C135.126 34.9026 137.131 33.9798 139.762 33.0402C140.765 32.6841 141.266 31.9229 141.266 30.7569C141.266 28.9431 140.921 27.6475 140.232 26.8701C139.574 26.0604 138.556 25.6555 137.178 25.6555C136.207 25.6555 135.471 25.8985 134.97 26.3843C134.468 26.8377 133.998 27.5665 133.56 28.5706C133.09 29.4775 132.37 29.9309 131.398 29.9309C130.803 29.9309 130.365 29.769 130.083 29.4451C129.832 29.0888 129.707 28.6839 129.707 28.2305C129.707 27.2912 130.146 26.4005 131.023 25.5584C131.9 24.6839 133.012 23.9713 134.359 23.4207C135.706 22.87 137.037 22.5947 138.353 22.5947ZM139.903 34.692C138.18 35.3076 136.865 35.9717 135.956 36.6843C135.048 37.3644 134.594 38.1902 134.594 39.1618C134.594 39.7124 134.75 40.1984 135.063 40.6195C135.408 41.0081 135.862 41.2026 136.426 41.2026C137.679 41.2026 138.807 40.749 139.809 39.842C140.843 38.9028 141.36 37.3644 141.36 35.2266C141.36 34.935 141.329 34.7245 141.266 34.595C141.203 34.4654 141.094 34.4008 140.937 34.4008C140.718 34.4008 140.373 34.4979 139.903 34.692Z" fill="#414755"/>
<path d="M113.507 22.6562C114.008 22.6562 114.259 22.9316 114.259 23.4822C114.259 23.6117 114.134 24.1624 113.883 25.134C113.664 26.1057 113.554 28.9074 113.554 33.5392V36.9885C113.554 38.3812 113.664 39.4664 113.883 40.2436C114.103 40.9887 114.416 41.5393 114.823 41.8957C115.262 42.2519 115.841 42.5434 116.562 42.77C117.063 42.8996 117.313 43.1586 117.313 43.5476C117.313 43.8066 117.219 43.9847 117.031 44.0818C116.844 44.1792 116.546 44.2277 116.138 44.2277C115.794 44.2277 115.308 44.1952 114.682 44.1303C113.993 44.0657 113.429 44.0332 112.99 44.0332H111.816L110.547 44.0818C109.482 44.1467 108.621 44.1792 107.963 44.1792C107.462 44.1792 107.211 43.9847 107.211 43.5961C107.211 43.4016 107.274 43.2396 107.399 43.1101C107.524 42.9806 107.744 42.8674 108.057 42.77C108.809 42.511 109.357 42.187 109.701 41.7984C110.046 41.4097 110.265 40.8752 110.359 40.1951C110.453 39.4825 110.5 38.4137 110.5 36.9885V33.5392C110.5 31.8549 110.406 30.5916 110.218 29.7495C110.062 28.9074 109.842 28.3244 109.56 28.0005C109.31 27.6442 108.871 27.2232 108.245 26.7373C107.869 26.4458 107.681 26.1705 107.681 25.9114C107.681 25.5227 107.963 25.2636 108.527 25.134C109.999 24.7777 111.283 24.1138 112.38 23.1421C112.756 22.8182 113.132 22.6562 113.507 22.6562ZM126.664 23.2879C126.852 23.2879 127.008 23.3527 127.134 23.4822C127.29 23.5794 127.368 23.7251 127.368 23.9195C127.368 24.3405 126.946 24.713 126.1 25.0369C123.656 25.9762 121.699 27.2556 120.227 28.8751L119.569 29.6038C118.942 30.3164 118.629 30.8832 118.629 31.3043C118.629 31.6929 118.801 32.1786 119.146 32.7617C119.49 33.3123 120.179 34.2679 121.213 35.6282C121.339 35.7902 121.495 35.9847 121.683 36.2113C121.871 36.4379 122.075 36.7134 122.294 37.037L123.516 38.6892C124.518 40.017 125.379 41.1182 126.1 41.9928C126.82 42.8674 127.259 43.4016 127.416 43.5961C127.791 44.0172 128.073 44.3572 128.261 44.6163C128.481 44.9079 128.59 45.1509 128.59 45.345C128.59 45.7336 128.355 45.9281 127.885 45.9281C126.946 45.9281 125.63 45.345 123.938 44.1792C122.247 43.0455 120.446 40.7781 118.535 37.3774C117.658 35.8227 116.781 34.5431 115.904 33.5392C115.622 33.1828 115.434 32.9398 115.34 32.8102C115.277 32.6486 115.246 32.4056 115.246 32.0816C115.246 31.8549 115.371 31.612 115.622 31.3528C115.747 31.2233 116.045 30.9479 116.515 30.5269C116.984 30.1058 117.501 29.5552 118.065 28.8751C118.942 27.8062 119.381 26.9479 119.381 26.3001C119.381 25.879 119.209 25.5228 118.864 25.2312C118.801 25.1664 118.676 25.0693 118.488 24.9397C118.3 24.7778 118.159 24.6482 118.065 24.5511C118.002 24.4215 117.971 24.2757 117.971 24.1138C117.971 23.8547 118.049 23.6604 118.206 23.5308C118.394 23.3689 118.629 23.2879 118.911 23.2879L120.274 23.3365C120.9 23.4012 121.354 23.4336 121.636 23.4336H123.704C124.111 23.4336 124.69 23.4012 125.442 23.3365L126.664 23.2879Z" fill="#414755"/>
<path d="M102.369 33.5391V36.9887C102.369 38.3814 102.478 39.4662 102.698 40.2438C102.917 40.9885 103.23 41.5391 103.638 41.8956C104.076 42.2517 104.656 42.5433 105.376 42.7702C105.877 42.8997 106.128 43.1588 106.128 43.5474C106.128 43.8065 106.034 43.9845 105.846 44.0819C105.658 44.179 105.36 44.2275 104.953 44.2275C104.609 44.2275 104.123 44.1951 103.497 44.1305C102.807 44.0655 102.244 44.0331 101.805 44.0331H100.63L99.3618 44.0819C98.2968 44.1465 97.4354 44.179 96.7776 44.179C96.2762 44.179 96.0256 43.9846 96.0256 43.5959C96.0256 43.4015 96.0884 43.2398 96.2137 43.1103C96.339 42.9807 96.5581 42.8673 96.8715 42.7702C97.6231 42.5108 98.1715 42.1871 98.5159 41.7985C98.8607 41.4096 99.0798 40.8754 99.1737 40.1952C99.2679 39.4826 99.3149 38.4135 99.3149 36.9887V33.5391C99.3149 26.9394 102.369 25.2984 102.369 33.5391Z" fill="#414755"/>
<path d="M102.032 22.6431C102.282 22.6431 102.486 22.724 102.642 22.886C102.799 23.0155 102.877 23.2099 102.877 23.469C102.877 23.7281 102.83 24.0844 102.737 24.5379C102.486 25.9954 102.361 27.7768 102.361 29.8821V35.032C102.361 42.6585 99.3065 45.9972 99.3065 35.275V29.8821C99.3065 28.6189 99.1654 27.7282 98.8834 27.21C98.6015 26.6917 98.069 26.2707 97.2859 25.9468C96.7534 25.7848 96.4873 25.4933 96.4873 25.0723C96.4873 24.5864 96.8945 24.3111 97.709 24.2464C98.492 24.1492 99.1029 24.0196 99.5415 23.8577C99.9798 23.6633 100.309 23.5014 100.528 23.3718C100.779 23.2099 100.935 23.1127 100.998 23.0803C101.029 23.0479 101.139 22.967 101.327 22.8374C101.546 22.7078 101.781 22.6431 102.032 22.6431Z" fill="#414755"/>
<path d="M89.4586 22.6431C89.7091 22.6431 89.9128 22.724 90.0694 22.886C90.2261 23.0155 90.3044 23.2099 90.3044 23.469C90.3044 23.7281 90.2575 24.0844 90.1633 24.5379C89.9128 25.9954 89.7875 27.7768 89.7875 29.8821C89.7875 33.0057 86.9683 34.7388 86.7333 29.8821C86.7333 28.6189 86.5924 27.7282 86.3105 27.21C86.0285 26.6917 85.496 26.2707 84.713 25.9468C84.1805 25.7848 83.9141 25.4933 83.9141 25.0723C83.9141 24.5864 84.3213 24.3111 85.1357 24.2464C85.9191 24.1492 86.5297 24.0196 86.9683 23.8577C87.4069 23.6633 87.7358 23.5014 87.9549 23.3718C88.2058 23.2099 88.3622 23.1127 88.425 23.0803C88.4564 23.0479 88.5658 22.967 88.7539 22.8374C88.973 22.7078 89.208 22.6431 89.4586 22.6431Z" fill="#414755"/>
<path d="M99.3097 34.6036C99.3097 33.9556 99.1829 33.6296 98.8071 33.6296C98.5562 33.6296 98.3215 33.7913 98.102 34.1153C97.4757 34.9899 96.724 35.6376 95.8467 36.0587C94.9698 36.5122 94.1084 36.7388 93.2626 36.7388C91.0383 36.7388 89.3469 36.1397 88.1881 34.9414C87.4948 34.2246 87.0634 33.4908 86.8072 32.415C86.635 31.6918 86.5977 31.0545 86.6229 30.1692C86.6577 28.9387 86.8072 28.577 86.3652 27.2691C85.7065 24.6493 89.5487 24.3579 89.7386 27.3115C89.8515 29.067 89.8092 31.0789 91.1011 32.415C91.9781 33.2893 93.0276 33.7267 94.2492 33.7267C95.972 33.7267 97.2407 33.1597 98.0551 32.0262C98.8696 30.8926 99.2768 29.3379 99.2768 27.3621C100.963 24.9874 100.592 34.3921 99.3097 34.6036Z" fill="#414755"/>
<path d="M42.4185 22.0605C42.6691 22.0605 42.8727 22.1577 43.0294 22.352C43.2171 22.5464 43.3113 22.8055 43.3113 23.1294V23.7124C43.3113 23.9391 43.3897 24.1497 43.5464 24.344C43.7027 24.5383 43.9063 24.6355 44.1569 24.6355C44.345 24.6355 44.5641 24.5545 44.815 24.3926L45.7075 23.8096C46.9605 22.9999 48.3703 22.595 49.9364 22.595C51.5025 22.595 52.8968 22.9999 54.1181 23.8096C55.3398 24.6193 56.2795 25.753 56.9373 27.2105C57.6265 28.6356 57.9713 30.2389 57.9713 32.0203C57.9713 34.4496 57.4543 36.636 56.4207 38.5793C55.4182 40.4902 54.0556 41.98 52.3329 43.0488C50.6101 44.1178 48.7147 44.6521 46.6472 44.6521C46.1775 44.6521 45.6764 44.5875 45.1439 44.4579C44.6114 44.3284 44.2825 44.2634 44.1569 44.2634C43.9377 44.2634 43.7655 44.3769 43.6402 44.6035C43.5464 44.8305 43.4991 45.2191 43.4991 45.7697V46.5954C43.4991 47.9882 43.6088 49.0572 43.828 49.802C44.0475 50.5795 44.3605 51.1462 44.7677 51.5027C45.2064 51.8588 45.7858 52.1503 46.5064 52.377C47.0389 52.539 47.3053 52.798 47.3053 53.1545C47.3053 53.4136 47.1956 53.5916 46.9764 53.6887C46.7883 53.7861 46.4908 53.8346 46.0836 53.8346C45.7389 53.8346 45.2533 53.8022 44.6269 53.7376C43.9377 53.6726 43.3738 53.6402 42.9355 53.6402H41.6196L40.351 53.6887C39.286 53.7536 38.4246 53.7861 37.7668 53.7861C37.1715 53.7861 36.874 53.5916 36.874 53.203C36.874 52.9764 36.9368 52.798 37.0621 52.6685C37.2188 52.5714 37.4849 52.4743 37.8607 52.377C38.6127 52.1503 39.1607 51.8427 39.5055 51.4538C39.8813 51.0652 40.1163 50.5146 40.2102 49.802C40.3355 49.0894 40.3979 48.0206 40.3979 46.5954V32.2147C40.3979 30.7895 40.2416 29.7206 39.9282 29.0081C39.6463 28.2631 39.1452 27.7287 38.4246 27.4048C37.986 27.2105 37.7668 26.9352 37.7668 26.5789C37.7668 26.255 37.9549 25.9797 38.3307 25.753C38.9257 25.3967 39.4113 25.0242 39.7871 24.6355C40.1943 24.2468 40.586 23.7448 40.9618 23.1294C41.2124 22.7407 41.4319 22.4654 41.6196 22.3035C41.8391 22.1415 42.1052 22.0605 42.4185 22.0605ZM47.3522 25.7044C45.9425 25.7044 44.9403 26.0283 44.345 26.676C43.75 27.3238 43.468 28.4413 43.4991 30.0283V38.822C43.5305 39.9232 43.6402 40.7493 43.828 41.2999C44.0161 41.8505 44.345 42.2391 44.815 42.466C45.3161 42.6602 46.0836 42.7576 47.1172 42.7576C48.3703 42.7576 49.5136 42.3526 50.5473 41.5429C51.5809 40.7007 52.3953 39.5995 52.9906 38.2389C53.5856 36.8786 53.8834 35.4049 53.8834 33.818C53.8834 31.4535 53.3037 29.5101 52.1448 27.9878C51.017 26.4655 49.4195 25.7044 47.3522 25.7044Z" fill="#414755"/>
<path d="M30.9901 12.0518C31.8044 12.0518 32.4467 12.2947 32.9167 12.7805C33.3864 13.234 33.6214 13.8332 33.6214 14.5782C33.6214 15.3555 33.3709 16.0033 32.8694 16.5215C32.3683 17.0074 31.7419 17.2503 30.9901 17.2503C30.1757 17.2503 29.5335 17.0074 29.0637 16.5215C28.5938 16.0033 28.3588 15.3555 28.3588 14.5782C28.3588 13.8332 28.5938 13.234 29.0637 12.7805C29.5335 12.2947 30.1757 12.0518 30.9901 12.0518ZM31.8358 22.0601C32.0864 22.0601 32.29 22.1573 32.4467 22.3516C32.6347 22.546 32.7286 22.8051 32.7286 23.129V23.712C32.7286 24.1006 32.7131 24.4569 32.6817 24.7808C32.5564 26.3355 32.4936 28.0845 32.4936 30.0279L32.5405 36.8782C32.5405 38.3034 32.6503 39.3886 32.8694 40.1333C33.1203 40.8784 33.4492 41.429 33.8564 41.7852C34.2636 42.1416 34.8272 42.4332 35.5478 42.6598C36.0803 42.8218 36.3467 43.0808 36.3467 43.437C36.3467 43.6964 36.237 43.8744 36.0178 43.9715C35.8298 44.0686 35.5323 44.1174 35.125 44.1174C34.7803 44.1174 34.2947 44.085 33.6683 44.02C32.9792 43.9554 32.4153 43.923 31.977 43.923H30.6612L29.3925 43.9715C28.3275 44.0364 27.4661 44.0686 26.8083 44.0686C26.2131 44.0686 25.9155 43.8744 25.9155 43.4858C25.9155 43.2589 25.9782 43.0969 26.1035 42.9998C26.2601 42.8703 26.5263 42.7568 26.9023 42.6598C27.654 42.4332 28.2022 42.1252 28.5468 41.7366C28.9227 41.348 29.1576 40.7974 29.2516 40.0848C29.3769 39.3722 29.4395 38.3034 29.4395 36.8782V32.2143C29.4082 30.7891 29.2516 29.7202 28.9697 29.0076C28.6878 28.2627 28.1866 27.7282 27.4661 27.4043C27.0275 27.21 26.8083 26.9347 26.8083 26.5784C26.8083 26.2545 26.9962 25.9792 27.3721 25.7525C28.1239 25.2667 28.7191 24.8456 29.1576 24.4893C29.6275 24.133 30.0347 23.6796 30.3793 23.129C30.6299 22.7403 30.8491 22.465 31.0371 22.303C31.2564 22.1411 31.5225 22.0601 31.8358 22.0601Z" fill="#414755"/>
<path d="M10.3841 11.2744C12.7961 11.2744 14.7069 11.9222 16.1165 13.2178C17.5575 14.5134 18.2779 16.2624 18.2779 18.4649C18.2779 20.7969 16.9779 22.886 14.378 24.7322C15.0045 24.6674 15.49 24.635 15.8346 24.635C17.8394 24.635 19.4683 25.299 20.7212 26.627C21.9742 27.9226 22.6007 29.8659 22.6007 32.457C22.6007 34.4653 21.9585 36.4086 20.6742 38.287C19.4213 40.1658 17.7611 41.6881 15.6936 42.8542C13.6575 44.0201 11.5588 44.6031 9.39737 44.6031C7.36129 44.6031 5.63844 44.3601 4.22883 43.8744C2.81921 43.356 1.75418 42.7083 1.03371 41.9311C0.344571 41.1535 0 40.3763 0 39.5991C0 38.9187 0.20361 38.352 0.61083 37.8984C1.01805 37.4449 1.50358 37.2183 2.06742 37.2183C2.50597 37.2183 2.94451 37.3318 3.38304 37.5584C3.82161 37.7528 4.18183 38.0604 4.46375 38.4815C5.09026 39.4857 5.87335 40.2629 6.81309 40.8135C7.78416 41.3319 8.97451 41.591 10.3841 41.591C11.4805 41.591 12.6865 41.3319 14.0021 40.8135C15.3177 40.2629 16.4454 39.4047 17.3851 38.2385C18.3249 37.0402 18.7948 35.5665 18.7948 33.8176C18.7948 32.619 18.5442 31.5826 18.043 30.7081C17.5418 29.8335 16.8996 29.1696 16.1165 28.7161C15.3334 28.2303 14.5033 27.9874 13.6262 27.9874C12.9684 27.9874 12.3889 28.0521 11.8877 28.1817C11.3865 28.3113 10.9479 28.4408 10.5721 28.5704C10.2275 28.6999 10.0082 28.7809 9.91424 28.8133C9.09978 29.1696 8.48897 29.3477 8.08174 29.3477C7.73719 29.3477 7.45527 29.2181 7.23598 28.959C7.0167 28.6999 6.90706 28.3922 6.90706 28.0359C6.90706 27.6149 7.0167 27.2262 7.23598 26.8699C7.48657 26.4812 7.83116 26.2059 8.26969 26.044C10.6191 25.1371 12.2323 24.133 13.1093 23.0318C13.9864 21.8981 14.425 20.5702 14.425 19.0479C14.425 18.4972 14.2527 17.9142 13.9081 17.2988C13.5949 16.651 13.0467 16.0842 12.2636 15.5984C11.4805 15.1126 10.4781 14.8696 9.25643 14.8696C7.81549 14.8696 6.5625 15.2907 5.49746 16.1328C4.46375 16.975 3.82161 18.1572 3.57099 19.6795C3.50835 20.1005 3.3204 20.473 3.00716 20.7969C2.69392 21.0884 2.36501 21.2342 2.02044 21.2342C1.73852 21.2342 1.48792 21.0884 1.26865 20.7969C1.04937 20.473 0.939737 20.052 0.939737 19.5337C0.939737 18.141 1.34696 16.813 2.1614 15.5498C3.00716 14.2542 4.1505 13.2178 5.59143 12.4404C7.03237 11.6631 8.62992 11.2744 10.3841 11.2744Z" fill="#414755"/>
<path d="M152.515 0.4842C152.518 0.47519 152.52 0.466181 152.522 0.457174C152.567 0.291728 152.631 0.109903 152.78 0.034552C153.147 -0.14973 153.397 0.44325 153.413 0.864231C153.482 2.69969 153.751 4.52613 154.213 6.29933C154.447 7.19945 154.838 8.2036 155.694 8.49597C157.041 8.95709 158.637 6.74405 159.284 7.3133C159.705 7.65402 158.809 9.15368 158.414 9.88097C158.1 10.902 158.016 11.9678 158.799 12.5657C159.581 13.1628 160.038 13.0555 160.994 13.2406C162.36 13.5052 163.827 13.4831 165.172 13.8402C165.492 13.9253 165.899 14.1956 165.743 14.4978C165.674 14.6314 165.439 14.8771 165.298 14.918C163.948 15.3144 162.592 15.1572 161.202 15.357C159.938 15.5388 158.843 15.8312 158.414 17.0745C158.031 18.1843 158.889 19.5881 159.405 20.6398C159.474 20.7823 159.541 20.9543 159.468 21.0952C159.359 21.3081 158.948 21.2966 158.737 21.195C158.085 20.8797 157.675 20.2933 157.079 19.8748C156.484 19.4563 156.026 19.1696 155.366 19.4694C154.632 19.8027 154.336 20.7119 154.219 21.5325C153.921 23.6137 154.186 28.0242 153.007 28.0848C152.102 28.0356 152.232 23.0346 151.645 20.6087C151.573 20.1508 151.469 19.6405 151.094 19.385C150.59 19.041 149.925 19.3563 149.4 19.6659C148.546 20.1705 148.079 20.6594 147.208 21.132C146.966 21.2631 146.638 21.381 146.451 21.1771C146.315 21.0296 146.339 20.7946 146.388 20.598C146.628 19.6447 147.247 18.8469 147.653 17.9558C147.826 17.5782 147.915 16.8698 147.769 16.4807C147.55 15.8984 146.448 15.7297 145.85 15.6437C143.804 15.348 142.597 15.3218 140.551 15.0261C140.201 14.9754 139.142 14.6895 139.63 14.1547C139.812 13.9548 140.419 13.9483 140.672 13.8942C141.059 13.8115 141.506 13.8033 141.893 13.7173C143.409 13.3807 144.044 13.3938 145.55 13.0121C146.129 12.8655 147.454 12.5395 147.778 12.0211C148.124 11.4658 148.03 10.4846 147.769 9.88097C147.508 9.27733 146.818 8.64013 146.707 7.98901C146.679 7.82274 146.677 7.62863 146.797 7.51314C146.913 7.40176 147.093 7.41156 147.248 7.44599C148.025 7.61635 148.338 8.16265 149.057 8.51564C149.775 8.86863 150.694 8.95793 151.161 8.29286C151.329 8.05532 151.398 7.76048 151.457 7.47299C151.927 5.16417 151.895 2.7562 152.514 0.485839L152.515 0.4842Z" fill="#414755"/>
</svg>
