<svg width="29" height="16" viewBox="0 0 29 16" fill="none" xmlns="http://www.w3.org/2000/svg">
<g clip-path="url(#clip0_4001_5822)">
<path d="M16.8137 11.2465V5.57926V3.6781H17.6466V16.0016H23.5556V14.6666C23.2123 14.6666 22.8831 14.5262 22.6404 14.2761C22.3977 14.0261 22.2613 13.6869 22.2613 13.3333V4.00564C22.2613 3.29691 22.5346 2.6172 23.021 2.11605C23.5075 1.6149 24.1673 1.33336 24.8552 1.33336V0H17.6472V2.33363H16.8143V0H5.44729V1.33336H10.9085C11.2002 1.33403 11.4831 1.43614 11.7114 1.62315C11.9397 1.81016 12.1 2.0711 12.1663 2.3637C10.6792 2.52171 9.30178 3.24226 8.30051 4.38599C7.29923 5.52972 6.74523 7.01535 6.74566 8.55554V11.961C6.74574 12.6698 6.47255 13.3496 5.98617 13.8508C5.4998 14.3521 4.84007 14.6338 4.1521 14.634V15.967H5.31815C5.79917 15.9673 6.2785 15.9085 6.74598 15.7918C9.39347 15.1311 11.3591 12.6733 11.3591 9.74115V6.33698C11.3587 5.96679 11.4331 5.60057 11.5777 5.26166C11.7222 4.92274 11.9337 4.61856 12.1987 4.36848V16C12.8047 16.0001 13.4048 15.8773 13.9647 15.6384C14.5246 15.3996 15.0334 15.0495 15.4619 14.6081C15.8905 14.1666 16.2304 13.6426 16.4624 13.0658C16.6943 12.489 16.8137 11.8708 16.8137 11.2465Z" fill="#922522"/>
<path d="M5.17696 4.70354C5.17697 3.99834 4.90581 3.32186 4.42284 2.82214C3.93986 2.32243 3.2844 2.04017 2.5999 2.03714C2.80475 1.87507 3.02731 1.73826 3.26305 1.62952C3.30099 1.6121 3.33999 1.59724 3.37981 1.58506C4.19557 1.33303 4.61377 1.33303 4.61377 1.33303V0C3.42488 2.54085e-05 2.2819 0.472889 1.4232 1.31997C0.564491 2.16706 0.056354 3.32297 0.00475941 4.54663C0.00475941 4.56494 0.0047594 4.58357 0.00253835 4.6022C0.00253835 4.60514 0.00253835 4.60776 0.00253835 4.6107C0 4.64176 0 4.67216 0 4.70354C0 4.70877 0 4.714 0 4.71923V4.72675C0.00298738 5.43392 0.278533 6.1109 0.766021 6.60877C1.0074 6.85529 1.29355 7.05042 1.60812 7.18301C1.9227 7.3156 2.25955 7.38306 2.59943 7.38154C2.93931 7.38001 3.27557 7.30953 3.58902 7.17413C3.90246 7.03872 4.18695 6.84104 4.42624 6.59236C4.66553 6.34369 4.85493 6.04889 4.98363 5.7248C5.11233 5.40072 5.17781 5.05369 5.17633 4.70354H5.17696Z" fill="#922522"/>
<path d="M29.0044 11.2807V11.2732C28.9998 10.7474 28.8445 10.2346 28.5579 9.79949C28.2712 9.36436 27.8661 9.02626 27.3935 8.82772C26.9208 8.62918 26.4017 8.57905 25.9015 8.68365C25.4012 8.78826 24.9422 9.04291 24.5821 9.41559C24.2219 9.78828 23.9768 10.2623 23.8776 10.7782C23.7783 11.294 23.8293 11.8285 24.0241 12.3146C24.219 12.8006 24.549 13.2165 24.9726 13.5098C25.3963 13.8031 25.8946 13.9609 26.4051 13.9631C26.2002 14.1251 25.9776 14.2619 25.7419 14.3708C25.7039 14.3879 25.6649 14.4027 25.6252 14.4149C24.8094 14.6669 24.3912 14.6669 24.3912 14.6669V16C25.5802 16 26.7232 15.5272 27.582 14.6801C28.4408 13.833 28.9489 12.677 29.0005 11.4533C29.0005 11.435 29.0005 11.4164 29.0028 11.3977C29.0028 11.3951 29.0028 11.3922 29.0028 11.3893C29.0028 11.3585 29.005 11.3278 29.005 11.2967C29.0047 11.2912 29.0044 11.286 29.0044 11.2807Z" fill="#922522"/>
</g>
<defs>
<clipPath id="clip0_4001_5822">
<rect width="29" height="16" fill="white"/>
</clipPath>
</defs>
</svg>
