<svg xmlns="http://www.w3.org/2000/svg" opacity=".1" width="420" height="449" viewBox="0 0 420 449" fill="none">
    <path d="M207.833 7.73366C207.872 7.58975 207.907 7.44585 207.947 7.302C208.667 4.65949 209.68 1.75537 212.068 0.551866C217.927 -2.3915 221.914 7.0796 222.168 13.8035C223.28 43.1194 227.57 72.2915 234.943 100.613C238.692 114.99 244.929 131.028 258.603 135.698C280.128 143.063 305.62 107.716 315.943 116.808C322.676 122.25 308.356 146.203 302.055 157.819C297.03 174.126 295.7 191.151 308.202 200.7C320.7 210.237 327.99 208.523 343.263 211.48C365.076 215.705 388.507 215.352 410.002 221.056C415.112 222.416 421.607 226.733 419.124 231.56C418.022 233.693 414.268 237.617 412.014 238.271C390.444 244.603 368.795 242.091 346.59 245.283C326.396 248.186 308.913 252.857 302.055 272.715C295.928 290.44 309.642 312.862 317.88 329.659C318.992 331.935 320.06 334.682 318.893 336.933C317.145 340.334 310.581 340.149 307.214 338.527C296.792 333.491 290.248 324.126 280.734 317.441C271.22 310.756 263.906 306.178 253.365 310.965C241.637 316.29 236.92 330.81 235.048 343.918C230.291 377.158 234.516 447.603 215.688 448.571C201.239 447.786 203.304 367.91 193.93 329.162C192.778 321.849 191.119 313.699 185.136 309.618C177.087 304.124 166.461 309.16 158.07 314.105C144.43 322.163 136.967 329.973 123.064 337.521C119.201 339.614 113.962 341.498 110.968 338.241C108.803 335.886 109.181 332.131 109.965 328.992C113.798 313.765 123.679 301.023 130.174 286.791C132.93 280.76 134.36 269.444 132.021 263.231C128.516 253.93 110.928 251.235 101.375 249.861C68.693 245.139 49.4025 244.72 16.7304 239.997C11.1394 239.187 -5.7777 234.621 2.01793 226.079C4.92763 222.887 14.6201 222.782 18.6569 221.919C24.8438 220.598 31.979 220.467 38.1658 219.093C62.3819 213.717 72.5262 213.926 96.5785 207.83C105.829 205.488 126.996 200.282 132.16 192.001C137.687 183.132 136.197 167.46 132.021 157.819C127.845 148.178 116.837 138 115.064 127.601C114.608 124.945 114.583 121.845 116.495 120C118.342 118.221 121.227 118.378 123.694 118.928C136.118 121.648 141.118 130.374 152.593 136.012C164.068 141.65 178.745 143.076 186.208 132.454C188.88 128.66 189.992 123.951 190.93 119.359C198.443 82.4822 197.927 44.0221 207.818 7.75984L207.833 7.73366Z" fill="#414755"/>
</svg>