<svg width="28" height="29" viewBox="0 0 28 29" fill="none" xmlns="http://www.w3.org/2000/svg">
<path d="M13.8664 0.499979C13.869 0.490676 13.8714 0.481372 13.874 0.472072C13.9221 0.301235 13.9896 0.113484 14.149 0.035678C14.5399 -0.15461 14.8059 0.457694 14.8228 0.892394C14.897 2.78766 15.1832 4.67363 15.6752 6.5046C15.9253 7.43407 16.3414 8.47093 17.2538 8.77283C18.6899 9.24898 20.3907 6.96383 21.0794 7.55163C21.5287 7.90344 20.5732 9.45197 20.1528 10.203C19.8176 11.2572 19.7288 12.3578 20.563 12.9752C21.3968 13.5918 21.8832 13.481 22.9022 13.6721C24.3575 13.9453 25.9208 13.9224 27.355 14.2912C27.6959 14.3791 28.1292 14.6582 27.9636 14.9703C27.89 15.1082 27.6396 15.3619 27.4892 15.4042C26.0501 15.8135 24.6056 15.6511 23.1241 15.8575C21.7768 16.0452 20.6103 16.3471 20.1528 17.6309C19.744 18.7769 20.6591 20.2265 21.2087 21.3124C21.2829 21.4595 21.3541 21.6371 21.2762 21.7826C21.1596 22.0025 20.7217 21.9906 20.4971 21.8857C19.8017 21.5601 19.3651 20.9546 18.7303 20.5225C18.0956 20.0903 17.6076 19.7943 16.9043 20.1038C16.1218 20.4481 15.8071 21.3868 15.6822 22.2342C15.3648 24.3832 15.6467 28.9374 14.3905 29C13.4264 28.9493 13.5643 23.7853 12.9388 21.2802C12.8619 20.8075 12.7513 20.2806 12.3521 20.0167C11.8151 19.6615 11.1061 19.9871 10.5463 20.3068C9.63622 20.8278 9.1383 21.3327 8.2107 21.8206C7.95296 21.956 7.60345 22.0778 7.40369 21.8672C7.25925 21.7149 7.28443 21.4722 7.33677 21.2692C7.59252 20.2848 8.25177 19.4611 8.68509 18.5409C8.86896 18.1511 8.96437 17.4195 8.80833 17.0178C8.57445 16.4165 7.40104 16.2423 6.76365 16.1535C4.58313 15.8481 3.29609 15.8211 1.11624 15.5158C0.743208 15.4634 -0.385483 15.1682 0.134634 14.616C0.328767 14.4096 0.975439 14.4028 1.24477 14.347C1.65755 14.2616 2.13361 14.2531 2.54639 14.1643C4.16206 13.8167 4.83888 13.8303 6.44362 13.4362C7.06081 13.2848 8.47308 12.9482 8.81762 12.4128C9.18634 11.8394 9.08694 10.8262 8.80833 10.203C8.52972 9.57965 7.79526 8.92169 7.67699 8.24935C7.64652 8.07766 7.64487 7.87722 7.77241 7.75797C7.89565 7.64297 8.08812 7.65309 8.25277 7.68863C9.08164 7.86454 9.41525 8.42865 10.1808 8.79314C10.9464 9.15764 11.9257 9.24984 12.4236 8.5631C12.6019 8.31782 12.6761 8.01337 12.7387 7.71651C13.2399 5.33245 13.2055 2.84602 13.8654 0.501672L13.8664 0.499979Z" fill="currentColor"/>
</svg>
