
<svg width="24" height="24" viewBox="0 0 24 24" fill="none" xmlns="http://www.w3.org/2000/svg">
<g clip-path="url(#clip0_4001_5836)">
<path d="M12 0C18.6274 0 24 5.37258 24 12C24 18.6274 18.6274 24 12 24C5.37258 24 0 18.6274 0 12C0 5.37258 5.37258 0 12 0ZM16.9062 7.22461C16.4549 7.23264 15.7616 7.47351 12.4297 8.85938C11.2623 9.34492 8.92938 10.3491 5.43164 11.873C4.86393 12.0988 4.56635 12.3202 4.53906 12.5361C4.48705 12.951 5.08444 13.0809 5.83594 13.3252C6.44853 13.5243 7.27265 13.7573 7.70117 13.7666C8.08983 13.775 8.52402 13.614 9.00293 13.2852C12.2713 11.0789 13.9585 9.96349 14.0645 9.93945C14.1391 9.92252 14.2424 9.90182 14.3125 9.96387C14.3824 10.026 14.3765 10.1435 14.3691 10.1758C14.3098 10.4289 11.2432 13.2181 11.0625 13.4053C10.3873 14.1066 9.61894 14.5366 10.8037 15.3174C11.8288 15.9929 12.4254 16.4239 13.4814 17.1162C14.1564 17.5586 14.686 18.0827 15.3828 18.0186C15.7034 17.989 16.0349 17.6872 16.2031 16.7881C16.6007 14.6627 17.3819 10.0585 17.5625 8.16113C17.5783 7.99489 17.558 7.78187 17.542 7.68848C17.526 7.59509 17.4924 7.4617 17.3711 7.36328C17.2273 7.24693 17.0054 7.22286 16.9062 7.22461Z" fill="currentColor"/>
</g>
<defs>
<clipPath id="clip0_4001_5836">
<rect width="24" height="24" fill="white"/>
</clipPath>
</defs>
</svg>
