<svg xmlns="http://www.w3.org/2000/svg" width="1026" height="1097" viewBox="0 0 1026 1097" fill="none"><path opacity=".1" d="M508.104 18.913c.097-.352.182-.704.28-1.056 1.76-6.462 4.236-13.564 10.075-16.507 14.324-7.199 24.072 15.964 24.691 32.407 2.719 71.693 13.207 143.035 31.234 212.296 9.165 35.16 24.412 74.382 57.844 85.802 52.623 18.011 114.946-68.43 140.183-46.195 16.461 13.308-18.549 71.885-33.953 100.294-12.285 39.88-15.538 81.514 15.028 104.867 30.555 23.323 48.375 19.132 85.715 26.362 53.328 10.333 110.613 9.469 163.159 23.418 12.5 3.327 28.37 13.885 22.3 25.689-2.69 5.215-11.87 14.812-17.38 16.412-52.732 15.484-105.659 9.341-159.946 17.148-49.37 7.101-92.112 18.522-108.876 67.085-14.98 43.349 18.549 98.184 38.688 139.26 2.719 5.567 5.329 12.285 2.476 17.788-4.273 8.318-20.321 7.867-28.552 3.9-25.48-12.317-41.479-35.22-64.738-51.568-23.258-16.348-41.14-27.544-66.911-15.835-28.673 13.02-40.205 48.531-44.782 80.587-11.629 81.29-1.299 253.563-47.331 255.933-35.325-1.92-30.275-197.261-53.193-292.02-2.817-17.884-6.872-37.815-21.499-47.796-19.678-13.437-45.656-1.12-66.171 10.973-33.347 19.708-51.592 38.807-85.581 57.265-9.445 5.119-22.252 9.726-29.572 1.76-5.292-5.759-4.37-14.94-2.452-22.618 9.372-37.238 33.529-68.399 49.407-103.205 6.737-14.749 10.233-42.421 4.516-57.617-8.571-22.746-51.568-29.336-74.924-32.696-79.9-11.549-127.061-12.572-206.937-24.122-13.669-1.982-55.027-13.147-35.969-34.038 7.114-7.807 30.81-8.063 40.68-10.173 15.124-3.232 32.568-3.552 47.694-6.911 59.203-13.148 84.003-12.636 142.806-27.544 22.615-5.728 74.365-18.46 86.99-38.71 13.511-21.692 9.869-60.017-.34-83.594-10.21-23.579-37.122-48.468-41.456-73.901-1.117-6.495-1.177-14.077 3.496-18.588 4.516-4.35 11.569-3.967 17.602-2.623 30.372 6.655 42.597 27.993 70.65 41.781 28.054 13.788 63.938 17.276 82.183-8.702 6.531-9.278 9.25-20.795 11.544-32.024 18.367-90.183 17.105-184.239 41.286-272.92l.036-.064z" fill="#E2F3FD"/></svg>