<svg width="166" height="54" viewBox="0 0 166 54" fill="none" xmlns="http://www.w3.org/2000/svg"><path d="M71.494 22.595c1.848 0 3.492.42 4.933 1.263 1.472.842 2.631 2.057 3.477 3.644.846 1.587 1.269 3.433 1.269 5.538 0 1.976-.501 3.855-1.504 5.636-1.002 1.782-2.318 3.223-3.947 4.324-1.628 1.101-3.336 1.652-5.121 1.652-1.785 0-3.383-.405-4.793-1.215-1.41-.842-2.522-2.056-3.336-3.644-.783-1.587-1.174-3.449-1.174-5.587 0-2.073.47-4 1.41-5.781.939-1.782 2.192-3.19 3.758-4.227 1.566-1.069 3.242-1.603 5.028-1.603zm-1.175 2.769c-1.66 0-2.992.615-3.994 1.846-1.002 1.231-1.504 2.867-1.504 4.907 0 1.782.345 3.466 1.034 5.053.72 1.587 1.66 2.866 2.82 3.838 1.19.94 2.458 1.409 3.805 1.409 1.567 0 2.741-.632 3.524-1.895.783-1.295 1.175-3.11 1.175-5.441 0-1.879-.329-3.547-.987-5.004-.626-1.49-1.472-2.64-2.537-3.45-1.034-.842-2.146-1.263-3.336-1.263zm68.034-2.769c1.942 0 3.445.453 4.51 1.36 1.065.875 1.598 2.203 1.598 3.984v10.98c0 1.263.689 1.895 2.067 1.895.846 0 1.566-.21 2.162-.632.062-.065.156-.097.282-.097.219 0 .329.146.329.437-.063 1.102-.501 2.073-1.316 2.916-.783.81-1.707 1.214-2.772 1.214-1.034 0-1.88-.324-2.537-.972-.659-.68-1.081-1.57-1.269-2.672-.094-.453-.266-.68-.517-.68-.188 0-.376.178-.564.534-.564 1.166-1.253 2.09-2.067 2.77-.784.68-1.911 1.02-3.383 1.02-1.253 0-2.287-.372-3.101-1.117-.815-.745-1.222-1.685-1.222-2.818 0-.81.188-1.604.564-2.38.407-.779 1.284-1.62 2.631-2.527 1.378-.907 3.383-1.83 6.014-2.77 1.003-.356 1.504-1.117 1.504-2.283 0-1.814-.345-3.11-1.034-3.887-.658-.81-1.676-1.215-3.054-1.215-.971 0-1.707.243-2.208.73-.502.453-.972 1.181-1.41 2.186-.47.906-1.19 1.36-2.162 1.36-.595 0-1.033-.162-1.315-.486a2.057 2.057 0 01-.376-1.215c0-.939.439-1.83 1.316-2.672.877-.874 1.989-1.587 3.336-2.137 1.347-.551 2.678-.826 3.994-.826zm1.55 12.097c-1.723.616-3.038 1.28-3.947 1.992-.908.68-1.362 1.506-1.362 2.478 0 .55.156 1.036.469 1.458.345.388.799.583 1.363.583 1.253 0 2.381-.454 3.383-1.361 1.034-.94 1.551-2.478 1.551-4.615 0-.292-.031-.502-.094-.632s-.172-.194-.329-.194c-.219 0-.564.097-1.034.291zm-26.396-12.036c.501 0 .752.276.752.826 0 .13-.125.68-.376 1.652-.219.972-.329 3.773-.329 8.405v3.45c0 1.392.11 2.477.329 3.255.22.745.533 1.295.94 1.652.439.356 1.018.647 1.739.874.501.13.751.389.751.778 0 .259-.094.437-.282.534-.187.097-.485.146-.893.146-.344 0-.83-.033-1.456-.098a18.853 18.853 0 00-1.692-.097h-1.174l-1.269.049a44.382 44.382 0 01-2.584.097c-.501 0-.752-.194-.752-.583 0-.194.063-.356.188-.486s.345-.243.658-.34c.752-.259 1.3-.583 1.644-.972.345-.388.564-.923.658-1.603.094-.712.141-1.781.141-3.206v-3.45c0-1.684-.094-2.947-.282-3.79-.156-.842-.376-1.425-.658-1.748-.25-.357-.689-.778-1.315-1.264-.376-.291-.564-.566-.564-.826 0-.388.282-.647.846-.777a8.851 8.851 0 003.853-1.992c.376-.324.752-.486 1.127-.486zm13.157.632a.63.63 0 01.47.194.481.481 0 01.234.438c0 .42-.422.793-1.268 1.117-2.444.94-4.401 2.219-5.873 3.838l-.658.729c-.627.712-.94 1.28-.94 1.7 0 .389.172.875.517 1.458.344.55 1.033 1.506 2.067 2.866.126.162.282.357.47.583.188.227.392.502.611.826l1.222 1.652a100.407 100.407 0 002.584 3.304c.72.874 1.159 1.409 1.316 1.603.375.421.657.761.845 1.02.22.292.329.535.329.729 0 .389-.235.583-.705.583-.939 0-2.255-.583-3.947-1.749-1.691-1.134-3.492-3.4-5.403-6.802-.877-1.554-1.754-2.834-2.631-3.838-.282-.356-.47-.6-.564-.729-.063-.161-.094-.404-.094-.728 0-.227.125-.47.376-.73.125-.129.423-.404.893-.825.469-.421.986-.972 1.55-1.652.877-1.069 1.316-1.927 1.316-2.575 0-.421-.172-.777-.517-1.069a2.837 2.837 0 00-.376-.291 6.78 6.78 0 01-.423-.389.987.987 0 01-.094-.437c0-.26.078-.454.235-.583.188-.162.423-.243.705-.243l1.363.049c.626.064 1.08.097 1.362.097h2.068c.407 0 .986-.033 1.738-.098l1.222-.048zM102.369 33.54v3.449c0 1.392.109 2.477.329 3.255.219.745.532 1.295.94 1.652.438.356 1.018.647 1.738.874.501.13.752.389.752.777 0 .26-.094.438-.282.535-.188.097-.486.145-.893.145-.344 0-.83-.032-1.456-.096a18.741 18.741 0 00-1.692-.098h-1.175l-1.268.049a44.62 44.62 0 01-2.584.097c-.502 0-.752-.194-.752-.583a.67.67 0 01.188-.486c.125-.13.344-.243.657-.34.752-.26 1.3-.583 1.645-.972.345-.388.564-.923.658-1.603.094-.712.14-1.782.14-3.206v-3.45c0-6.6 3.055-8.24 3.055 0z" fill="#414755"/><path d="M102.032 22.643a.81.81 0 01.61.243c.157.13.235.324.235.583 0 .26-.047.615-.14 1.069-.251 1.457-.376 3.239-.376 5.344v5.15c0 7.627-3.055 10.965-3.055.243v-5.393c0-1.263-.14-2.154-.423-2.672-.281-.518-.814-.94-1.597-1.263-.533-.162-.799-.454-.799-.875 0-.486.407-.76 1.222-.826.783-.097 1.394-.226 1.832-.388.439-.195.768-.357.987-.486.251-.162.407-.26.47-.292.031-.032.141-.113.329-.243a1.36 1.36 0 01.705-.194zm-12.573 0a.81.81 0 01.61.243c.157.13.235.324.235.583 0 .26-.047.615-.14 1.069-.251 1.457-.377 3.239-.377 5.344 0 3.124-2.819 4.857-3.054 0 0-1.263-.14-2.154-.422-2.672-.283-.518-.815-.94-1.598-1.263-.532-.162-.799-.454-.799-.875 0-.486.407-.76 1.222-.826.783-.097 1.394-.226 1.832-.388.439-.195.768-.357.987-.486.25-.162.407-.26.47-.292.031-.032.14-.113.329-.243.219-.13.454-.194.705-.194z" fill="#414755"/><path d="M99.31 34.604c0-.648-.127-.974-.503-.974-.25 0-.486.161-.705.485-.626.875-1.378 1.523-2.255 1.944-.877.453-1.739.68-2.584.68-2.225 0-3.916-.6-5.075-1.798-.693-.716-1.125-1.45-1.38-2.526-.173-.723-.21-1.36-.185-2.246.035-1.23.184-1.592-.258-2.9-.658-2.62 3.184-2.911 3.374.043.112 1.755.07 3.767 1.362 5.103.877.874 1.927 1.312 3.148 1.312 1.723 0 2.992-.567 3.806-1.7.815-1.134 1.222-2.69 1.222-4.665 1.686-2.375 1.315 7.03.033 7.242zM42.419 22.06c.25 0 .454.098.61.292.188.194.282.453.282.777v.583a.99.99 0 00.235.632c.157.194.36.291.61.291.189 0 .408-.08.659-.242l.893-.583c1.253-.81 2.662-1.215 4.228-1.215 1.566 0 2.96.405 4.182 1.215 1.222.81 2.161 1.943 2.82 3.4.688 1.426 1.033 3.029 1.033 4.81 0 2.43-.517 4.616-1.55 6.56-1.003 1.91-2.365 3.4-4.088 4.469-1.723 1.069-3.618 1.603-5.686 1.603a6.4 6.4 0 01-1.503-.194c-.533-.13-.861-.195-.987-.195-.22 0-.391.114-.517.34-.094.227-.14.616-.14 1.167v.825c0 1.393.109 2.462.328 3.207.22.778.532 1.344.94 1.7.438.357 1.018.648 1.738.875.533.162.8.421.8.777 0 .26-.11.438-.33.535-.188.097-.485.146-.892.146-.345 0-.83-.033-1.457-.097a18.728 18.728 0 00-1.692-.098H41.62l-1.269.049a44.394 44.394 0 01-2.584.097c-.596 0-.893-.194-.893-.583 0-.227.063-.405.188-.535.157-.097.423-.194.799-.291.752-.227 1.3-.534 1.645-.923.375-.389.61-.94.704-1.652.126-.713.188-1.781.188-3.207v-14.38c0-1.426-.156-2.494-.47-3.207a2.763 2.763 0 00-1.503-1.603c-.439-.195-.658-.47-.658-.826 0-.324.188-.6.564-.826.595-.356 1.08-.729 1.456-1.117.407-.39.799-.891 1.175-1.507.25-.388.47-.664.658-.826.22-.162.485-.242.799-.242zm4.933 3.644c-1.41 0-2.412.324-3.007.972-.595.648-.877 1.765-.846 3.352v8.794c.032 1.101.141 1.927.329 2.478.188.55.517.94.987 1.166.501.194 1.269.292 2.302.292 1.253 0 2.397-.405 3.43-1.215 1.034-.842 1.848-1.944 2.444-3.304.595-1.36.892-2.834.892-4.421 0-2.364-.58-4.308-1.738-5.83-1.128-1.523-2.726-2.284-4.793-2.284zM30.99 12.052c.814 0 1.457.243 1.927.729.47.453.704 1.052.704 1.797 0 .777-.25 1.425-.752 1.944-.5.485-1.127.728-1.879.728-.814 0-1.456-.243-1.926-.729-.47-.518-.705-1.166-.705-1.943 0-.745.235-1.344.705-1.797.47-.486 1.112-.73 1.926-.73zm.846 10.008c.25 0 .454.097.61.292.189.194.283.453.283.777v.583c0 .389-.016.745-.047 1.069a65.868 65.868 0 00-.188 5.247l.047 6.85c0 1.425.11 2.51.328 3.255.251.745.58 1.296.987 1.652.408.357.971.648 1.692.875.532.162.799.42.799.777 0 .26-.11.437-.33.535-.187.097-.485.145-.892.145-.345 0-.83-.032-1.457-.097a18.85 18.85 0 00-1.691-.097h-1.316l-1.269.048a44.35 44.35 0 01-2.584.098c-.595 0-.892-.195-.892-.583 0-.227.062-.39.188-.486.156-.13.422-.243.798-.34.752-.227 1.3-.535 1.645-.923.376-.389.61-.94.705-1.652.125-.713.188-1.782.188-3.207v-4.664c-.032-1.425-.188-2.494-.47-3.206a2.763 2.763 0 00-1.504-1.604c-.439-.194-.658-.47-.658-.826 0-.323.188-.599.564-.825a20.938 20.938 0 001.786-1.264c.47-.356.877-.81 1.221-1.36.25-.389.47-.664.658-.826a1.31 1.31 0 01.799-.243zM10.384 11.274c2.412 0 4.323.648 5.732 1.944 1.442 1.295 2.162 3.044 2.162 5.247 0 2.332-1.3 4.421-3.9 6.267a15.157 15.157 0 011.457-.097c2.004 0 3.633.664 4.886 1.992 1.253 1.296 1.88 3.239 1.88 5.83 0 2.008-.642 3.952-1.927 5.83-1.253 1.879-2.913 3.401-4.98 4.567-2.037 1.166-4.135 1.75-6.297 1.75-2.036 0-3.759-.244-5.168-.73-1.41-.518-2.475-1.166-3.195-1.943C.344 41.154 0 40.376 0 39.6c0-.68.204-1.247.61-1.7.408-.454.894-.68 1.457-.68.439 0 .878.113 1.316.34.439.194.799.501 1.08.922.627 1.005 1.41 1.782 2.35 2.332.971.519 2.162.778 3.571.778 1.096 0 2.303-.26 3.618-.778 1.316-.55 2.443-1.408 3.383-2.575.94-1.198 1.41-2.672 1.41-4.42 0-1.199-.25-2.235-.752-3.11-.501-.874-1.143-1.538-1.927-1.992-.783-.486-1.613-.729-2.49-.729-.658 0-1.237.065-1.738.195-.502.13-.94.259-1.316.388-.345.13-.564.21-.658.243-.814.357-1.425.535-1.832.535-.345 0-.627-.13-.846-.389a1.383 1.383 0 01-.329-.923c0-.421.11-.81.329-1.166.25-.389.595-.664 1.034-.826 2.35-.907 3.962-1.911 4.84-3.012.876-1.134 1.315-2.462 1.315-3.984 0-.55-.172-1.134-.517-1.75-.313-.647-.861-1.214-1.644-1.7-.784-.485-1.786-.728-3.008-.728-1.44 0-2.694.42-3.759 1.263-1.033.842-1.675 2.024-1.926 3.547-.063.42-.25.793-.564 1.117-.313.291-.642.437-.987.437-.281 0-.532-.146-.751-.437-.22-.324-.33-.745-.33-1.263 0-1.393.408-2.721 1.222-3.984.846-1.296 1.99-2.332 3.43-3.11 1.441-.777 3.039-1.166 4.793-1.166zM152.515.484l.007-.027c.045-.165.109-.347.258-.422.367-.185.617.408.633.83.069 1.835.338 3.661.8 5.434.234.9.625 1.905 1.481 2.197 1.347.461 2.943-1.752 3.59-1.183.421.341-.475 1.84-.87 2.568-.314 1.021-.398 2.087.385 2.685.782.597 1.239.49 2.195.675 1.366.264 2.833.242 4.178.6.32.084.727.355.571.657-.069.133-.304.38-.445.42-1.35.396-2.706.24-4.096.439-1.264.182-2.359.474-2.788 1.718-.383 1.11.475 2.513.991 3.565.069.142.136.314.063.455-.109.213-.52.202-.731.1-.652-.315-1.062-.902-1.658-1.32-.595-.419-1.053-.705-1.713-.406-.734.334-1.03 1.243-1.147 2.063-.298 2.082-.033 6.492-1.212 6.553-.905-.05-.775-5.05-1.362-7.476-.072-.458-.176-.969-.551-1.224-.504-.344-1.169-.029-1.694.28-.854.506-1.321.994-2.192 1.467-.242.131-.57.249-.757.045-.136-.147-.112-.382-.063-.579.24-.953.859-1.751 1.265-2.642.173-.378.262-1.086.116-1.475-.219-.583-1.321-.751-1.919-.837-2.046-.296-3.253-.322-5.299-.618-.35-.05-1.409-.336-.921-.871.182-.2.789-.207 1.042-.26.387-.083.834-.092 1.221-.178 1.516-.336 2.151-.323 3.657-.705.579-.146 1.904-.473 2.228-.99.346-.556.252-1.537-.009-2.141-.261-.604-.951-1.24-1.062-1.892-.028-.166-.03-.36.09-.476.116-.111.296-.101.451-.067.777.17 1.09.717 1.809 1.07.718.353 1.637.442 2.104-.223.168-.238.237-.533.296-.82.47-2.309.438-4.717 1.057-6.987l.001-.002z" fill="#414755"/></svg>