<svg width="29" height="16" viewBox="0 0 29 16" fill="none" xmlns="http://www.w3.org/2000/svg"><g clip-path="url(#clip0_4001_5822)" fill="#922522"><path d="M16.814 11.246V3.68h.833v12.323h5.909v-1.335c-.344 0-.673-.14-.916-.39a1.36 1.36 0 01-.379-.944V4.006c0-.71.274-1.389.76-1.89a2.556 2.556 0 011.834-.783V0h-7.208v2.334h-.833V0H5.447v1.333h5.462c.291.001.574.103.802.29.229.187.389.448.455.74a5.981 5.981 0 00-3.865 2.023 6.33 6.33 0 00-1.555 4.17v3.405c0 .709-.273 1.389-.76 1.89a2.556 2.556 0 01-1.834.783v1.333h1.166c.481 0 .96-.059 1.428-.175 2.647-.66 4.613-3.119 4.613-6.05V6.336c0-.37.074-.736.219-1.075a2.67 2.67 0 01.62-.894V16c.607 0 1.207-.123 1.767-.362a4.606 4.606 0 001.497-1.03 4.767 4.767 0 001-1.542 4.88 4.88 0 00.352-1.82z"/><path d="M5.177 4.704c0-.706-.271-1.382-.754-1.882A2.55 2.55 0 002.6 2.037a3.29 3.29 0 01.663-.407.936.936 0 01.117-.045c.816-.252 1.234-.252 1.234-.252V0a4.542 4.542 0 00-3.19 1.32A4.818 4.818 0 00.002 4.602v.009C0 4.64 0 4.672 0 4.704v.023a2.71 2.71 0 00.766 1.882c.241.246.528.441.842.574a2.522 2.522 0 001.981-.009c.313-.135.598-.333.837-.582a2.66 2.66 0 00.558-.867c.128-.324.194-.671.192-1.021h.001zm23.827 6.576v-.007a2.724 2.724 0 00-.446-1.474 2.606 2.606 0 00-1.165-.971 2.518 2.518 0 00-1.492-.144c-.5.104-.959.359-1.319.732-.36.372-.605.846-.704 1.362-.1.516-.049 1.05.146 1.537.195.486.525.902.949 1.195.423.293.922.45 1.432.453a3.304 3.304 0 01-.663.408 1.002 1.002 0 01-.117.044c-.816.252-1.234.252-1.234.252V16a4.543 4.543 0 003.191-1.32A4.818 4.818 0 0029 11.453c0-.018 0-.037.003-.055v-.009l.002-.092v-.016z"/></g><defs><clipPath id="clip0_4001_5822"><path fill="#fff" d="M0 0h29v16H0z"/></clipPath></defs></svg>