<svg xmlns="http://www.w3.org/2000/svg" opacity=".1" width="420" height="449" viewBox="0 0 420 449" fill="none"><path d="M207.833 7.734c.039-.144.074-.288.114-.432.72-2.643 1.733-5.547 4.121-6.75 5.859-2.944 9.846 6.528 10.1 13.252a406.037 406.037 0 0012.775 86.809c3.749 14.377 9.986 30.415 23.66 35.085 21.525 7.365 47.017-27.982 57.34-18.89 6.733 5.442-7.587 29.395-13.888 41.011-5.025 16.307-6.355 33.332 6.147 42.881 12.498 9.537 19.788 7.823 35.061 10.78 21.813 4.225 45.244 3.872 66.739 9.576 5.11 1.36 11.605 5.677 9.122 10.504-1.102 2.133-4.856 6.057-7.11 6.711-21.57 6.332-43.219 3.82-65.424 7.012-20.194 2.903-37.677 7.574-44.535 27.432-6.127 17.725 7.587 40.147 15.825 56.944 1.112 2.276 2.18 5.023 1.013 7.274-1.748 3.401-8.312 3.216-11.679 1.594-10.422-5.036-16.966-14.401-26.48-21.086-9.514-6.685-16.828-11.263-27.369-6.476-11.728 5.325-16.445 19.845-18.317 32.953-4.757 33.24-.532 103.685-19.36 104.653-14.449-.785-12.384-80.661-21.758-119.409-1.152-7.313-2.811-15.463-8.794-19.544-8.049-5.494-18.675-.458-27.066 4.487-13.64 8.058-21.103 15.868-35.006 23.416-3.863 2.093-9.102 3.977-12.096.72-2.165-2.355-1.787-6.11-1.003-9.249 3.833-15.227 13.714-27.969 20.209-42.201 2.756-6.031 4.186-17.347 1.847-23.56-3.505-9.301-21.093-11.996-30.646-13.37-32.682-4.722-51.972-5.141-84.645-9.864-5.59-.81-22.508-5.376-14.712-13.918 2.91-3.192 12.602-3.297 16.639-4.16 6.187-1.321 13.322-1.452 19.509-2.826 24.216-5.376 34.36-5.167 58.413-11.263 9.25-2.342 30.417-7.548 35.581-15.829 5.527-8.869 4.037-24.541-.139-34.182-4.176-9.641-15.184-19.819-16.957-30.218-.456-2.656-.481-5.756 1.431-7.601 1.847-1.779 4.732-1.622 7.199-1.072 12.424 2.72 17.424 11.446 28.899 17.084 11.475 5.638 26.152 7.064 33.615-3.558 2.672-3.794 3.784-8.503 4.722-13.095 7.513-36.877 6.997-75.337 16.888-111.6l.015-.025z" fill="#414755"/></svg>