<svg width="28" height="29" viewBox="0 0 28 29" fill="none" xmlns="http://www.w3.org/2000/svg"><path d="M13.866.5l.008-.028c.048-.17.116-.359.275-.436.39-.19.657.422.674.856.074 1.896.36 3.782.852 5.613.25.93.666 1.966 1.579 2.268 1.436.476 3.137-1.81 3.825-1.221.45.351-.506 1.9-.926 2.651-.335 1.054-.424 2.155.41 2.772s1.32.506 2.34.697c1.455.273 3.018.25 4.452.62.34.087.774.366.609.678-.074.138-.324.392-.475.434-1.439.41-2.883.247-4.365.454-1.347.187-2.514.49-2.971 1.773-.409 1.146.506 2.596 1.056 3.681.074.147.145.325.067.47-.116.22-.554.209-.779.104-.695-.326-1.132-.931-1.767-1.363-.634-.433-1.122-.729-1.826-.42-.782.345-1.097 1.284-1.222 2.131-.317 2.15-.035 6.703-1.292 6.766-.964-.05-.826-5.215-1.451-7.72-.077-.473-.188-1-.587-1.263-.537-.355-1.246-.03-1.806.29-.91.52-1.408 1.026-2.335 1.514-.258.135-.608.257-.807.046-.145-.152-.12-.395-.067-.598.256-.984.915-1.808 1.348-2.728.184-.39.28-1.122.123-1.523-.234-.602-1.407-.776-2.044-.864-2.18-.306-3.468-.333-5.648-.638-.373-.053-1.501-.348-.981-.9.194-.206.84-.213 1.11-.269.413-.085.889-.094 1.301-.183 1.616-.347 2.293-.334 3.898-.728.617-.151 2.03-.488 2.374-1.023.368-.574.269-1.587-.01-2.21-.278-.623-1.013-1.281-1.131-1.954-.03-.171-.032-.372.095-.491.124-.115.316-.105.48-.07.83.177 1.163.74 1.929 1.105.765.365 1.745.457 2.243-.23.178-.245.252-.55.315-.846.5-2.385.466-4.871 1.126-7.215L13.866.5z" fill="currentColor"/></svg>