<svg viewBox="0 0 1920 153" xmlns="http://www.w3.org/2000/svg"><g opacity=".8" clip-path="url(#clip0_509_15191)" fill="#D3EAF7"><path d="M1394.57 99.655l.03-.092c.15-.566.37-1.187.88-1.445 1.26-.63 2.11 1.397 2.16 2.836a86.896 86.896 0 002.74 18.578c.81 3.077 2.15 6.51 5.08 7.509 4.61 1.576 10.08-5.988 12.3-4.043 1.44 1.165-1.63 6.291-2.98 8.777-1.08 3.49-1.37 7.134 1.32 9.177 2.68 2.041 4.24 1.675 7.51 2.307 4.68.905 9.71.829 14.32 2.05 1.09.291 2.49 1.215 1.95 2.248-.23.456-1.04 1.296-1.52 1.436-4.63 1.355-9.27.818-14.03 1.501-4.33.621-8.08 1.621-9.55 5.87-1.32 3.794 1.62 8.593 3.39 12.187.24.487.47 1.075.22 1.557-.38.728-1.78.688-2.51.341-2.23-1.078-3.64-3.082-5.68-4.513-2.04-1.43-3.6-2.41-5.86-1.385-2.52 1.139-3.53 4.247-3.93 7.052-1.02 7.114-.12 22.19-4.15 22.397-3.1-.168-2.66-17.263-4.67-25.555-.25-1.565-.6-3.309-1.89-4.183-1.72-1.176-4-.098-5.8.96-2.93 1.725-4.53 3.397-7.51 5.012-.83.448-1.95.851-2.59.154-.47-.504-.39-1.308-.22-1.979.82-3.259 2.94-5.986 4.34-9.032.59-1.291.89-3.712.39-5.042-.75-1.991-4.52-2.567-6.57-2.861-7.01-1.011-11.15-1.101-18.15-2.111-1.2-.174-4.83-1.151-3.16-2.979.63-.683 2.71-.706 3.57-.89 1.33-.283 2.86-.311 4.18-.605 5.2-1.151 7.37-1.106 12.53-2.411 1.99-.501 6.52-1.615 7.63-3.387 1.19-1.898.87-5.252-.03-7.316-.89-2.063-3.25-4.241-3.63-6.467-.1-.568-.11-1.232.3-1.626.4-.381 1.02-.348 1.55-.23 2.66.582 3.73 2.45 6.19 3.656 2.47 1.207 5.61 1.512 7.21-.761.58-.812.81-1.82 1.02-2.803 1.61-7.892 1.5-16.123 3.62-23.883v-.006z"/><path d="M1394.57 99.655l.03-.092c.15-.566.37-1.187.88-1.445 1.26-.63 2.11 1.397 2.16 2.836a86.896 86.896 0 002.74 18.578c.81 3.077 2.15 6.51 5.08 7.509 4.61 1.576 10.08-5.988 12.3-4.043 1.44 1.165-1.63 6.291-2.98 8.777-1.08 3.49-1.37 7.134 1.32 9.177 2.68 2.041 4.24 1.675 7.51 2.307 4.68.905 9.71.829 14.32 2.05 1.09.291 2.49 1.215 1.95 2.248-.23.456-1.04 1.296-1.52 1.436-4.63 1.355-9.27.818-14.03 1.501-4.33.621-8.08 1.621-9.55 5.87-1.32 3.794 1.62 8.593 3.39 12.187.24.487.47 1.075.22 1.557-.38.728-1.78.688-2.51.341-2.23-1.078-3.64-3.082-5.68-4.513-2.04-1.43-3.6-2.41-5.86-1.385-2.52 1.139-3.53 4.247-3.93 7.052-1.02 7.114-.12 22.19-4.15 22.397-3.1-.168-2.66-17.263-4.67-25.555-.25-1.565-.6-3.309-1.89-4.183-1.72-1.176-4-.098-5.8.96-2.93 1.725-4.53 3.397-7.51 5.012-.83.448-1.95.851-2.59.154-.47-.504-.39-1.308-.22-1.979.82-3.259 2.94-5.986 4.34-9.032.59-1.291.89-3.712.39-5.042-.75-1.991-4.52-2.567-6.57-2.861-7.01-1.011-11.15-1.101-18.15-2.111-1.2-.174-4.83-1.151-3.16-2.979.63-.683 2.71-.706 3.57-.89 1.33-.283 2.86-.311 4.18-.605 5.2-1.151 7.37-1.106 12.53-2.411 1.99-.501 6.52-1.615 7.63-3.387 1.19-1.898.87-5.252-.03-7.316-.89-2.063-3.25-4.241-3.63-6.467-.1-.568-.11-1.232.3-1.626.4-.381 1.02-.348 1.55-.23 2.66.582 3.73 2.45 6.19 3.656 2.47 1.207 5.61 1.512 7.21-.761.58-.812.81-1.82 1.02-2.803 1.61-7.892 1.5-16.123 3.62-23.883v-.006zm0-106l.03-.092c.15-.566.37-1.187.88-1.445 1.26-.63 2.11 1.397 2.16 2.836a86.901 86.901 0 002.74 18.578c.81 3.077 2.15 6.51 5.08 7.51 4.61 1.575 10.08-5.99 12.3-4.044 1.44 1.165-1.63 6.291-2.98 8.777-1.08 3.49-1.37 7.134 1.32 9.177 2.68 2.041 4.24 1.675 7.51 2.307 4.68.905 9.71.83 14.32 2.05 1.09.29 2.49 1.215 1.95 2.248-.23.456-1.04 1.296-1.52 1.436-4.63 1.355-9.27.817-14.03 1.5-4.33.622-8.08 1.622-9.55 5.871-1.32 3.794 1.62 8.593 3.39 12.187.24.487.47 1.075.22 1.557-.38.728-1.78.688-2.51.341-2.23-1.078-3.64-3.082-5.68-4.513-2.04-1.43-3.6-2.41-5.86-1.385-2.52 1.14-3.53 4.247-3.93 7.052-1.02 7.114-.12 22.19-4.15 22.397-3.1-.168-2.66-17.263-4.67-25.555-.25-1.565-.6-3.31-1.89-4.183-1.72-1.176-4-.098-5.8.96-2.93 1.725-4.53 3.396-7.51 5.012-.83.448-1.95.851-2.59.154-.47-.504-.39-1.308-.22-1.98.82-3.258 2.94-5.985 4.34-9.031.59-1.29.89-3.712.39-5.042-.75-1.99-4.52-2.568-6.57-2.861-7.01-1.011-11.15-1.1-18.15-2.111-1.2-.174-4.83-1.151-3.16-2.98.63-.682 2.71-.705 3.57-.89 1.33-.282 2.86-.31 4.18-.604 5.2-1.15 7.37-1.106 12.53-2.41 1.99-.502 6.52-1.616 7.63-3.388 1.19-1.899.87-5.252-.03-7.316-.89-2.063-3.25-4.241-3.63-6.467-.1-.568-.11-1.232.3-1.626.4-.381 1.02-.348 1.55-.23 2.66.582 3.73 2.45 6.19 3.656 2.47 1.207 5.61 1.512 7.21-.761.58-.812.81-1.82 1.02-2.803 1.61-7.892 1.5-16.123 3.62-23.883v-.006zm100 146l.03-.092c.15-.566.37-1.187.88-1.445 1.26-.63 2.11 1.397 2.16 2.836a86.896 86.896 0 002.74 18.578c.81 3.077 2.15 6.51 5.08 7.509 4.61 1.576 10.08-5.988 12.3-4.043 1.44 1.165-1.63 6.291-2.98 8.777-1.08 3.49-1.37 7.134 1.32 9.177 2.68 2.041 4.24 1.675 7.51 2.307 4.68.905 9.71.829 14.32 2.05 1.09.291 2.49 1.215 1.95 2.248-.23.456-1.04 1.296-1.52 1.436-4.63 1.355-9.27.818-14.03 1.501-4.33.621-8.08 1.621-9.55 5.87-1.32 3.794 1.62 8.593 3.39 12.187.24.487.47 1.075.22 1.557-.38.728-1.78.688-2.51.341-2.23-1.078-3.64-3.082-5.68-4.513-2.04-1.43-3.6-2.41-5.86-1.385-2.52 1.139-3.53 4.247-3.93 7.052-1.02 7.114-.12 22.19-4.15 22.397-3.1-.168-2.66-17.263-4.67-25.555-.25-1.565-.6-3.309-1.89-4.183-1.72-1.176-4-.098-5.8.96-2.93 1.725-4.53 3.397-7.51 5.012-.83.448-1.95.851-2.59.154-.47-.504-.39-1.308-.22-1.979.82-3.259 2.94-5.986 4.34-9.032.59-1.291.89-3.712.39-5.042-.75-1.991-4.52-2.567-6.57-2.861-7.01-1.011-11.15-1.101-18.15-2.111-1.2-.174-4.83-1.151-3.16-2.979.63-.683 2.71-.706 3.57-.89 1.33-.283 2.86-.311 4.18-.605 5.2-1.151 7.37-1.106 12.53-2.411 1.99-.501 6.52-1.615 7.63-3.387 1.19-1.898.87-5.252-.03-7.316-.89-2.063-3.25-4.241-3.63-6.467-.1-.568-.11-1.232.3-1.626.4-.381 1.02-.348 1.55-.23 2.66.582 3.73 2.45 6.19 3.656 2.47 1.207 5.61 1.512 7.21-.761.58-.812.81-1.82 1.02-2.803 1.61-7.892 1.5-16.123 3.62-23.883v-.006zm0-106l.03-.092c.15-.566.37-1.187.88-1.445 1.26-.63 2.11 1.397 2.16 2.836a86.901 86.901 0 002.74 18.578c.81 3.077 2.15 6.51 5.08 7.51 4.61 1.575 10.08-5.99 12.3-4.044 1.44 1.165-1.63 6.291-2.98 8.777-1.08 3.49-1.37 7.134 1.32 9.177 2.68 2.041 4.24 1.675 7.51 2.307 4.68.905 9.71.83 14.32 2.05 1.09.29 2.49 1.215 1.95 2.248-.23.456-1.04 1.296-1.52 1.436-4.63 1.355-9.27.818-14.03 1.5-4.33.622-8.08 1.622-9.55 5.871-1.32 3.794 1.62 8.593 3.39 12.187.24.487.47 1.075.22 1.557-.38.728-1.78.688-2.51.341-2.23-1.078-3.64-3.082-5.68-4.513-2.04-1.43-3.6-2.41-5.86-1.385-2.52 1.14-3.53 4.247-3.93 7.052-1.02 7.114-.12 22.19-4.15 22.397-3.1-.168-2.66-17.263-4.67-25.555-.25-1.565-.6-3.31-1.89-4.183-1.72-1.176-4-.098-5.8.96-2.93 1.725-4.53 3.397-7.51 5.012-.83.448-1.95.851-2.59.154-.47-.504-.39-1.308-.22-1.979.82-3.26 2.94-5.986 4.34-9.032.59-1.29.89-3.712.39-5.042-.75-1.99-4.52-2.567-6.57-2.861-7.01-1.011-11.15-1.1-18.15-2.111-1.2-.174-4.83-1.151-3.16-2.98.63-.682 2.71-.705 3.57-.89 1.33-.282 2.86-.31 4.18-.604 5.2-1.15 7.37-1.106 12.53-2.41 1.99-.502 6.52-1.616 7.63-3.388 1.19-1.898.87-5.252-.03-7.316-.89-2.063-3.25-4.241-3.63-6.467-.1-.568-.11-1.232.3-1.626.4-.381 1.02-.348 1.55-.23 2.66.582 3.73 2.45 6.19 3.656 2.47 1.207 5.61 1.512 7.21-.761.58-.812.81-1.82 1.02-2.803 1.61-7.892 1.5-16.123 3.62-23.883v-.006zm0-106l.03-.092c.15-.566.37-1.187.88-1.445 1.26-.63 2.11 1.397 2.16 2.836a86.901 86.901 0 002.74 18.579c.81 3.076 2.15 6.509 5.08 7.508 4.61 1.576 10.08-5.988 12.3-4.042 1.44 1.164-1.63 6.29-2.98 8.776-1.08 3.49-1.37 7.134 1.32 9.177 2.68 2.041 4.24 1.675 7.51 2.307 4.68.905 9.71.83 14.32 2.05 1.09.29 2.49 1.215 1.95 2.248-.23.456-1.04 1.296-1.52 1.436-4.63 1.355-9.27.818-14.03 1.5-4.33.622-8.08 1.622-9.55 5.871-1.32 3.794 1.62 8.593 3.39 12.187.24.487.47 1.075.22 1.557-.38.728-1.78.688-2.51.341-2.23-1.078-3.64-3.082-5.68-4.513-2.04-1.43-3.6-2.41-5.86-1.385-2.52 1.14-3.53 4.247-3.93 7.052-1.02 7.114-.12 22.19-4.15 22.397-3.1-.168-2.66-17.263-4.67-25.555-.25-1.565-.6-3.31-1.89-4.183-1.72-1.176-4-.098-5.8.96-2.93 1.725-4.53 3.397-7.51 5.012-.83.448-1.95.851-2.59.154-.47-.504-.39-1.308-.22-1.98.82-3.258 2.94-5.985 4.34-9.031.59-1.29.89-3.712.39-5.042-.75-1.99-4.52-2.568-6.57-2.861-7.01-1.011-11.15-1.1-18.15-2.111-1.2-.174-4.83-1.151-3.16-2.98.63-.682 2.71-.705 3.57-.89 1.33-.282 2.86-.31 4.18-.604 5.2-1.15 7.37-1.106 12.53-2.41 1.99-.502 6.52-1.616 7.63-3.388 1.19-1.898.87-5.252-.03-7.316-.89-2.063-3.25-4.241-3.63-6.467-.1-.568-.11-1.232.3-1.626.4-.381 1.02-.348 1.55-.23 2.66.582 3.73 2.45 6.19 3.656 2.47 1.207 5.61 1.512 7.21-.761.58-.812.81-1.82 1.02-2.803 1.61-7.892 1.5-16.123 3.62-23.883v-.006zm100 146l.03-.092c.15-.566.37-1.187.88-1.445 1.26-.63 2.11 1.397 2.16 2.836a86.901 86.901 0 002.74 18.579c.81 3.076 2.15 6.509 5.08 7.508 4.61 1.576 10.08-5.988 12.3-4.042 1.44 1.164-1.63 6.29-2.98 8.776-1.08 3.49-1.37 7.134 1.32 9.177 2.68 2.041 4.24 1.675 7.51 2.307 4.68.905 9.71.829 14.32 2.05 1.09.291 2.49 1.215 1.95 2.248-.23.456-1.04 1.296-1.52 1.436-4.63 1.355-9.27.818-14.03 1.501-4.33.621-8.08 1.621-9.55 5.87-1.32 3.794 1.62 8.593 3.39 12.187.24.487.47 1.075.22 1.557-.38.728-1.78.688-2.51.341-2.23-1.078-3.64-3.082-5.68-4.513-2.04-1.43-3.6-2.41-5.86-1.385-2.52 1.139-3.53 4.247-3.93 7.052-1.02 7.114-.12 22.19-4.15 22.397-3.1-.168-2.66-17.263-4.67-25.555-.25-1.565-.6-3.309-1.89-4.183-1.72-1.176-4-.098-5.8.96-2.93 1.725-4.53 3.397-7.51 5.012-.83.448-1.95.851-2.59.154-.47-.504-.39-1.308-.22-1.979.82-3.259 2.94-5.986 4.34-9.032.59-1.291.89-3.712.39-5.042-.75-1.991-4.52-2.567-6.57-2.861-7.01-1.011-11.15-1.101-18.15-2.111-1.2-.174-4.83-1.151-3.16-2.979.63-.683 2.71-.706 3.57-.89 1.33-.283 2.86-.311 4.18-.605 5.2-1.151 7.37-1.106 12.53-2.411 1.99-.501 6.52-1.615 7.63-3.387 1.19-1.898.87-5.252-.03-7.316-.89-2.063-3.25-4.241-3.63-6.467-.1-.568-.11-1.232.3-1.626.4-.381 1.02-.348 1.55-.23 2.66.582 3.73 2.45 6.19 3.656 2.47 1.207 5.61 1.512 7.21-.761.58-.812.81-1.82 1.02-2.803 1.61-7.892 1.5-16.123 3.62-23.883v-.006zm0-106l.03-.092c.15-.566.37-1.187.88-1.445 1.26-.63 2.11 1.397 2.16 2.836a86.901 86.901 0 002.74 18.579c.81 3.076 2.15 6.509 5.08 7.508 4.61 1.576 10.08-5.988 12.3-4.043 1.44 1.165-1.63 6.291-2.98 8.777-1.08 3.49-1.37 7.134 1.32 9.177 2.68 2.041 4.24 1.675 7.51 2.307 4.68.905 9.71.83 14.32 2.05 1.09.29 2.49 1.215 1.95 2.248-.23.456-1.04 1.296-1.52 1.436-4.63 1.355-9.27.818-14.03 1.5-4.33.622-8.08 1.622-9.55 5.871-1.32 3.794 1.62 8.593 3.39 12.187.24.487.47 1.075.22 1.557-.38.728-1.78.688-2.51.341-2.23-1.078-3.64-3.082-5.68-4.513-2.04-1.43-3.6-2.41-5.86-1.385-2.52 1.14-3.53 4.247-3.93 7.052-1.02 7.114-.12 22.19-4.15 22.397-3.1-.168-2.66-17.263-4.67-25.555-.25-1.565-.6-3.31-1.89-4.183-1.72-1.176-4-.098-5.8.96-2.93 1.725-4.53 3.396-7.51 5.012-.83.448-1.95.851-2.59.154-.47-.504-.39-1.308-.22-1.98.82-3.258 2.94-5.985 4.34-9.031.59-1.29.89-3.712.39-5.042-.75-1.99-4.52-2.568-6.57-2.861-7.01-1.011-11.15-1.1-18.15-2.111-1.2-.174-4.83-1.151-3.16-2.98.63-.682 2.71-.705 3.57-.89 1.33-.282 2.86-.31 4.18-.604 5.2-1.15 7.37-1.106 12.53-2.41 1.99-.502 6.52-1.616 7.63-3.388 1.19-1.898.87-5.252-.03-7.316-.89-2.063-3.25-4.241-3.63-6.467-.1-.568-.11-1.232.3-1.626.4-.381 1.02-.348 1.55-.23 2.66.582 3.73 2.45 6.19 3.656 2.47 1.207 5.61 1.512 7.21-.761.58-.812.81-1.82 1.02-2.803 1.61-7.892 1.5-16.123 3.62-23.883v-.006zm100 146l.03-.092c.15-.566.37-1.187.88-1.445 1.26-.63 2.11 1.397 2.16 2.836a86.896 86.896 0 002.74 18.578c.81 3.077 2.15 6.51 5.08 7.509 4.61 1.576 10.08-5.988 12.3-4.043 1.44 1.165-1.63 6.291-2.98 8.777-1.08 3.49-1.37 7.134 1.32 9.177 2.68 2.041 4.24 1.675 7.51 2.307 4.68.905 9.71.829 14.32 2.05 1.09.291 2.49 1.215 1.95 2.248-.23.456-1.04 1.296-1.52 1.436-4.63 1.355-9.27.818-14.03 1.501-4.33.621-8.08 1.621-9.55 5.87-1.32 3.794 1.62 8.593 3.39 12.187.24.487.47 1.075.22 1.557-.38.728-1.78.688-2.51.341-2.23-1.078-3.64-3.082-5.68-4.513-2.04-1.43-3.6-2.41-5.86-1.385-2.52 1.139-3.53 4.247-3.93 7.052-1.02 7.114-.12 22.19-4.15 22.397-3.1-.168-2.66-17.263-4.67-25.555-.25-1.565-.6-3.309-1.89-4.183-1.72-1.176-4-.098-5.8.96-2.93 1.725-4.53 3.397-7.51 5.012-.83.448-1.95.851-2.59.154-.47-.504-.39-1.308-.22-1.979.82-3.259 2.94-5.986 4.34-9.032.59-1.291.89-3.712.39-5.042-.75-1.991-4.52-2.567-6.57-2.861-7.01-1.011-11.15-1.101-18.15-2.111-1.2-.174-4.83-1.151-3.16-2.979.63-.683 2.71-.706 3.57-.89 1.33-.283 2.86-.311 4.18-.605 5.2-1.151 7.37-1.106 12.53-2.411 1.99-.501 6.52-1.615 7.63-3.387 1.19-1.898.87-5.252-.03-7.316-.89-2.063-3.25-4.241-3.63-6.467-.1-.568-.11-1.232.3-1.626.4-.381 1.02-.348 1.55-.23 2.66.582 3.73 2.45 6.19 3.656 2.47 1.207 5.61 1.512 7.21-.761.58-.812.81-1.82 1.02-2.803 1.61-7.892 1.5-16.123 3.62-23.883v-.006zm0-106l.03-.092c.15-.566.37-1.187.88-1.445 1.26-.63 2.11 1.397 2.16 2.836a86.901 86.901 0 002.74 18.578c.81 3.077 2.15 6.51 5.08 7.51 4.61 1.575 10.08-5.99 12.3-4.044 1.44 1.165-1.63 6.291-2.98 8.777-1.08 3.49-1.37 7.134 1.32 9.177 2.68 2.041 4.24 1.675 7.51 2.307 4.68.905 9.71.83 14.32 2.05 1.09.29 2.49 1.215 1.95 2.248-.23.456-1.04 1.296-1.52 1.436-4.63 1.355-9.27.817-14.03 1.5-4.33.622-8.08 1.622-9.55 5.871-1.32 3.794 1.62 8.593 3.39 12.187.24.487.47 1.075.22 1.557-.38.728-1.78.688-2.51.341-2.23-1.078-3.64-3.082-5.68-4.513-2.04-1.43-3.6-2.41-5.86-1.385-2.52 1.14-3.53 4.247-3.93 7.052-1.02 7.114-.12 22.19-4.15 22.397-3.1-.168-2.66-17.263-4.67-25.555-.25-1.565-.6-3.31-1.89-4.183-1.72-1.176-4-.098-5.8.96-2.93 1.725-4.53 3.397-7.51 5.012-.83.448-1.95.851-2.59.154-.47-.504-.39-1.308-.22-1.98.82-3.258 2.94-5.985 4.34-9.031.59-1.29.89-3.712.39-5.042-.75-1.99-4.52-2.568-6.57-2.861-7.01-1.011-11.15-1.1-18.15-2.111-1.2-.174-4.83-1.151-3.16-2.98.63-.682 2.71-.705 3.57-.89 1.33-.282 2.86-.31 4.18-.604 5.2-1.15 7.37-1.106 12.53-2.41 1.99-.502 6.52-1.616 7.63-3.388 1.19-1.898.87-5.252-.03-7.316-.89-2.063-3.25-4.241-3.63-6.467-.1-.568-.11-1.232.3-1.626.4-.381 1.02-.348 1.55-.23 2.66.582 3.73 2.45 6.19 3.656 2.47 1.207 5.61 1.512 7.21-.761.58-.812.81-1.82 1.02-2.803 1.61-7.892 1.5-16.123 3.62-23.883v-.006zm100 146l.03-.092c.15-.566.37-1.187.88-1.445 1.26-.63 2.11 1.397 2.16 2.836a86.896 86.896 0 002.74 18.578c.81 3.077 2.15 6.51 5.08 7.509 4.61 1.576 10.08-5.988 12.3-4.043 1.44 1.165-1.63 6.291-2.98 8.777-1.08 3.49-1.37 7.134 1.32 9.177 2.68 2.041 4.24 1.675 7.51 2.307 4.68.905 9.71.829 14.32 2.05 1.09.291 2.49 1.215 1.95 2.248-.23.456-1.04 1.296-1.52 1.436-4.63 1.355-9.27.818-14.03 1.501-4.33.621-8.08 1.621-9.55 5.87-1.32 3.794 1.62 8.593 3.39 12.187.24.487.47 1.075.22 1.557-.38.728-1.78.688-2.51.341-2.23-1.078-3.64-3.082-5.68-4.513-2.04-1.43-3.6-2.41-5.86-1.385-2.52 1.139-3.53 4.247-3.93 7.052-1.02 7.114-.12 22.19-4.15 22.397-3.1-.168-2.66-17.263-4.67-25.555-.25-1.565-.6-3.309-1.89-4.183-1.72-1.176-4-.098-5.8.96-2.93 1.725-4.53 3.397-7.51 5.012-.83.448-1.95.851-2.59.154-.47-.504-.39-1.308-.22-1.979.82-3.259 2.94-5.986 4.34-9.032.59-1.291.89-3.712.39-5.042-.75-1.991-4.52-2.567-6.57-2.861-7.01-1.011-11.15-1.101-18.15-2.111-1.2-.174-4.83-1.151-3.16-2.979.63-.683 2.71-.706 3.57-.89 1.33-.283 2.86-.311 4.18-.605 5.2-1.151 7.37-1.106 12.53-2.411 1.99-.501 6.52-1.615 7.63-3.387 1.19-1.898.87-5.252-.03-7.316-.89-2.063-3.25-4.241-3.63-6.467-.1-.568-.11-1.232.3-1.626.4-.381 1.02-.348 1.55-.23 2.66.582 3.73 2.45 6.19 3.656 2.47 1.207 5.61 1.512 7.21-.761.58-.812.81-1.82 1.02-2.803 1.61-7.892 1.5-16.123 3.62-23.883v-.006zm0-106l.03-.092c.15-.566.37-1.187.88-1.445 1.26-.63 2.11 1.397 2.16 2.836a86.901 86.901 0 002.74 18.578c.81 3.077 2.15 6.51 5.08 7.51 4.61 1.575 10.08-5.99 12.3-4.043 1.44 1.164-1.63 6.29-2.98 8.776-1.08 3.49-1.37 7.134 1.32 9.177 2.68 2.041 4.24 1.675 7.51 2.307 4.68.905 9.71.83 14.32 2.05 1.09.29 2.49 1.215 1.95 2.248-.23.456-1.04 1.296-1.52 1.436-4.63 1.355-9.27.818-14.03 1.5-4.33.622-8.08 1.622-9.55 5.871-1.32 3.794 1.62 8.593 3.39 12.187.24.487.47 1.075.22 1.557-.38.728-1.78.688-2.51.341-2.23-1.078-3.64-3.082-5.68-4.513-2.04-1.43-3.6-2.41-5.86-1.385-2.52 1.139-3.53 4.247-3.93 7.052-1.02 7.114-.12 22.19-4.15 22.397-3.1-.168-2.66-17.263-4.67-25.555-.25-1.565-.6-3.309-1.89-4.183-1.72-1.176-4-.098-5.8.96-2.93 1.725-4.53 3.397-7.51 5.012-.83.448-1.95.851-2.59.154-.47-.504-.39-1.308-.22-1.979.82-3.259 2.94-5.986 4.34-9.032.59-1.291.89-3.712.39-5.042-.75-1.991-4.52-2.567-6.57-2.861-7.01-1.011-11.15-1.1-18.15-2.111-1.2-.174-4.83-1.151-3.16-2.98.63-.682 2.71-.705 3.57-.89 1.33-.282 2.86-.31 4.18-.604 5.2-1.15 7.37-1.106 12.53-2.41 1.99-.502 6.52-1.616 7.63-3.388 1.19-1.898.87-5.252-.03-7.316-.89-2.063-3.25-4.241-3.63-6.467-.1-.568-.11-1.232.3-1.626.4-.381 1.02-.348 1.55-.23 2.66.582 3.73 2.45 6.19 3.656 2.47 1.207 5.61 1.512 7.21-.761.58-.812.81-1.82 1.02-2.803 1.61-7.892 1.5-16.123 3.62-23.883v-.006zm0-106l.03-.092c.15-.566.37-1.187.88-1.445 1.26-.63 2.11 1.397 2.16 2.836a86.901 86.901 0 002.74 18.578c.81 3.077 2.15 6.51 5.08 7.51 4.61 1.575 10.08-5.99 12.3-4.044 1.44 1.165-1.63 6.291-2.98 8.777-1.08 3.49-1.37 7.134 1.32 9.177 2.68 2.041 4.24 1.675 7.51 2.307 4.68.905 9.71.83 14.32 2.05 1.09.29 2.49 1.215 1.95 2.248-.23.456-1.04 1.296-1.52 1.436-4.63 1.355-9.27.817-14.03 1.5-4.33.622-8.08 1.622-9.55 5.871-1.32 3.794 1.62 8.593 3.39 12.187.24.487.47 1.075.22 1.557-.38.728-1.78.688-2.51.341-2.23-1.078-3.64-3.082-5.68-4.513-2.04-1.43-3.6-2.41-5.86-1.385-2.52 1.14-3.53 4.247-3.93 7.052-1.02 7.114-.12 22.19-4.15 22.397-3.1-.168-2.66-17.263-4.67-25.555-.25-1.565-.6-3.31-1.89-4.183-1.72-1.176-4-.098-5.8.96-2.93 1.725-4.53 3.396-7.51 5.012-.83.448-1.95.851-2.59.154-.47-.504-.39-1.308-.22-1.98.82-3.258 2.94-5.985 4.34-9.031.59-1.29.89-3.712.39-5.042-.75-1.99-4.52-2.567-6.57-2.861-7.01-1.011-11.15-1.1-18.15-2.111-1.2-.174-4.83-1.151-3.16-2.98.63-.682 2.71-.705 3.57-.89 1.33-.282 2.86-.31 4.18-.604 5.2-1.15 7.37-1.106 12.53-2.41 1.99-.502 6.52-1.616 7.63-3.388 1.19-1.899.87-5.252-.03-7.316-.89-2.063-3.25-4.241-3.63-6.467-.1-.568-.11-1.232.3-1.626.4-.381 1.02-.348 1.55-.23 2.66.582 3.73 2.45 6.19 3.656 2.47 1.207 5.61 1.512 7.21-.761.58-.812.81-1.82 1.02-2.803 1.61-7.892 1.5-16.123 3.62-23.883v-.006zm100 146l.03-.092c.15-.566.37-1.187.88-1.445 1.26-.63 2.11 1.397 2.16 2.836a86.895 86.895 0 002.74 18.578c.81 3.077 2.15 6.51 5.08 7.509 4.61 1.576 10.08-5.988 12.3-4.043 1.44 1.165-1.63 6.291-2.98 8.777-1.08 3.49-1.37 7.134 1.32 9.177 2.68 2.041 4.24 1.675 7.51 2.307 4.68.905 9.71.829 14.32 2.05 1.09.291 2.49 1.215 1.95 2.248-.23.456-1.04 1.296-1.52 1.436-4.63 1.355-9.27.818-14.03 1.501-4.33.621-8.08 1.621-9.55 5.87-1.32 3.794 1.62 8.593 3.39 12.187.24.487.47 1.075.22 1.557-.38.728-1.78.688-2.51.341-2.23-1.078-3.64-3.082-5.68-4.513-2.04-1.43-3.6-2.41-5.86-1.385-2.52 1.139-3.53 4.247-3.93 7.052-1.02 7.114-.12 22.19-4.15 22.397-3.1-.168-2.66-17.263-4.67-25.555-.25-1.565-.6-3.309-1.89-4.183-1.72-1.176-4-.098-5.8.96-2.93 1.725-4.53 3.397-7.51 5.012-.83.448-1.95.851-2.59.154-.47-.504-.39-1.308-.22-1.979.82-3.259 2.94-5.986 4.34-9.032.59-1.291.89-3.712.39-5.042-.75-1.991-4.52-2.567-6.57-2.861-7.01-1.011-11.15-1.101-18.15-2.111-1.2-.174-4.83-1.151-3.16-2.979.63-.683 2.71-.706 3.57-.89 1.33-.283 2.86-.311 4.18-.605 5.2-1.151 7.37-1.106 12.53-2.411 1.99-.501 6.52-1.615 7.63-3.387 1.19-1.898.87-5.252-.03-7.316-.89-2.063-3.25-4.241-3.63-6.467-.1-.568-.11-1.232.3-1.626.4-.381 1.02-.348 1.55-.23 2.66.582 3.73 2.45 6.19 3.656 2.47 1.207 5.61 1.512 7.21-.761.58-.812.81-1.82 1.02-2.803 1.61-7.892 1.5-16.123 3.62-23.883v-.006zm0-106l.03-.092c.15-.566.37-1.187.88-1.445 1.26-.63 2.11 1.397 2.16 2.836a86.9 86.9 0 002.74 18.578c.81 3.077 2.15 6.51 5.08 7.51 4.61 1.575 10.08-5.99 12.3-4.044 1.44 1.165-1.63 6.291-2.98 8.777-1.08 3.49-1.37 7.134 1.32 9.177 2.68 2.041 4.24 1.675 7.51 2.307 4.68.905 9.71.83 14.32 2.05 1.09.29 2.49 1.215 1.95 2.248-.23.456-1.04 1.296-1.52 1.436-4.63 1.355-9.27.818-14.03 1.5-4.33.622-8.08 1.622-9.55 5.871-1.32 3.794 1.62 8.593 3.39 12.187.24.487.47 1.075.22 1.557-.38.728-1.78.688-2.51.341-2.23-1.078-3.64-3.082-5.68-4.513-2.04-1.43-3.6-2.41-5.86-1.385-2.52 1.14-3.53 4.247-3.93 7.052-1.02 7.114-.12 22.19-4.15 22.397-3.1-.168-2.66-17.263-4.67-25.555-.25-1.565-.6-3.31-1.89-4.183-1.72-1.176-4-.098-5.8.96-2.93 1.725-4.53 3.396-7.51 5.012-.83.448-1.95.851-2.59.154-.47-.504-.39-1.308-.22-1.98.82-3.258 2.94-5.985 4.34-9.031.59-1.29.89-3.712.39-5.042-.75-1.99-4.52-2.568-6.57-2.861-7.01-1.011-11.15-1.1-18.15-2.111-1.2-.174-4.83-1.151-3.16-2.98.63-.682 2.71-.705 3.57-.89 1.33-.282 2.86-.31 4.18-.604 5.2-1.15 7.37-1.106 12.53-2.41 1.99-.502 6.52-1.616 7.63-3.388 1.19-1.899.87-5.252-.03-7.316-.89-2.063-3.25-4.241-3.63-6.467-.1-.568-.11-1.232.3-1.626.4-.381 1.02-.348 1.55-.23 2.66.582 3.73 2.45 6.19 3.656 2.47 1.207 5.61 1.512 7.21-.761.58-.812.81-1.82 1.02-2.803 1.61-7.892 1.5-16.123 3.62-23.883v-.006zm-600-28l.03-.092c.15-.566.37-1.187.88-1.445 1.26-.63 2.11 1.397 2.16 2.836a86.901 86.901 0 002.74 18.578c.81 3.077 2.15 6.51 5.08 7.51 4.61 1.575 10.08-5.99 12.3-4.044 1.44 1.165-1.63 6.291-2.98 8.777-1.08 3.49-1.37 7.134 1.32 9.177 2.68 2.041 4.24 1.675 7.51 2.307 4.68.905 9.71.83 14.32 2.05 1.09.29 2.49 1.215 1.95 2.248-.23.456-1.04 1.296-1.52 1.436-4.63 1.355-9.27.818-14.03 1.5-4.33.622-8.08 1.622-9.55 5.871-1.32 3.794 1.62 8.593 3.39 12.187.24.487.47 1.075.22 1.557-.38.728-1.78.688-2.51.341-2.23-1.078-3.64-3.082-5.68-4.513-2.04-1.43-3.6-2.41-5.86-1.385-2.52 1.14-3.53 4.247-3.93 7.052-1.02 7.114-.12 22.19-4.15 22.397-3.1-.168-2.66-17.263-4.67-25.555-.25-1.565-.6-3.31-1.89-4.183-1.72-1.176-4-.098-5.8.96-2.93 1.725-4.53 3.396-7.51 5.012-.83.448-1.95.851-2.59.154-.47-.504-.39-1.308-.22-1.98.82-3.258 2.94-5.985 4.34-9.031.59-1.29.89-3.712.39-5.042-.75-1.99-4.52-2.567-6.57-2.861-7.01-1.011-11.15-1.1-18.15-2.111-1.2-.174-4.83-1.151-3.16-2.98.63-.682 2.71-.705 3.57-.89 1.33-.282 2.86-.31 4.18-.604 5.2-1.15 7.37-1.106 12.53-2.41 1.99-.502 6.52-1.616 7.63-3.388 1.19-1.898.87-5.252-.03-7.316-.89-2.063-3.25-4.241-3.63-6.467-.1-.568-.11-1.232.3-1.626.4-.381 1.02-.348 1.55-.23 2.66.582 3.73 2.45 6.19 3.656 2.47 1.207 5.61 1.512 7.21-.761.58-.812.81-1.82 1.02-2.803 1.61-7.892 1.5-16.123 3.62-23.883v-.006zm0 106l.03-.092c.15-.566.37-1.187.88-1.445 1.26-.63 2.11 1.397 2.16 2.836a86.901 86.901 0 002.74 18.578c.81 3.077 2.15 6.51 5.08 7.51 4.61 1.575 10.08-5.99 12.3-4.043 1.44 1.164-1.63 6.29-2.98 8.776-1.08 3.49-1.37 7.134 1.32 9.177 2.68 2.041 4.24 1.675 7.51 2.307 4.68.905 9.71.829 14.32 2.05 1.09.291 2.49 1.215 1.95 2.248-.23.456-1.04 1.296-1.52 1.436-4.63 1.355-9.27.818-14.03 1.501-4.33.621-8.08 1.621-9.55 5.87-1.32 3.794 1.62 8.593 3.39 12.187.24.487.47 1.075.22 1.557-.38.728-1.78.688-2.51.341-2.23-1.078-3.64-3.082-5.68-4.513-2.04-1.43-3.6-2.41-5.86-1.385-2.52 1.139-3.53 4.247-3.93 7.052-1.02 7.114-.12 22.19-4.15 22.397-3.1-.168-2.66-17.263-4.67-25.555-.25-1.565-.6-3.309-1.89-4.183-1.72-1.176-4-.098-5.8.96-2.93 1.725-4.53 3.397-7.51 5.012-.83.448-1.95.851-2.59.154-.47-.504-.39-1.308-.22-1.979.82-3.259 2.94-5.986 4.34-9.032.59-1.291.89-3.712.39-5.042-.75-1.991-4.52-2.567-6.57-2.861-7.01-1.011-11.15-1.101-18.15-2.111-1.2-.174-4.83-1.151-3.16-2.979.63-.683 2.71-.706 3.57-.89 1.33-.283 2.86-.311 4.18-.605 5.2-1.151 7.37-1.106 12.53-2.411 1.99-.501 6.52-1.615 7.63-3.387 1.19-1.898.87-5.252-.03-7.316-.89-2.063-3.25-4.241-3.63-6.467-.1-.568-.11-1.232.3-1.626.4-.381 1.02-.348 1.55-.23 2.66.582 3.73 2.45 6.19 3.656 2.47 1.207 5.61 1.512 7.21-.761.58-.812.81-1.82 1.02-2.803 1.61-7.892 1.5-16.123 3.62-23.883v-.006zm-100-146l.03-.092c.15-.566.37-1.187.88-1.445 1.26-.63 2.11 1.397 2.16 2.836a86.901 86.901 0 002.74 18.579c.81 3.076 2.15 6.509 5.08 7.508 4.61 1.576 10.08-5.988 12.3-4.042 1.44 1.164-1.63 6.29-2.98 8.776-1.08 3.49-1.37 7.134 1.32 9.177 2.68 2.041 4.24 1.675 7.51 2.307 4.68.905 9.71.83 14.32 2.05 1.09.29 2.49 1.215 1.95 2.248-.23.456-1.04 1.296-1.52 1.436-4.63 1.355-9.27.817-14.03 1.5-4.33.622-8.08 1.622-9.55 5.871-1.32 3.794 1.62 8.593 3.39 12.187.24.487.47 1.075.22 1.557-.38.728-1.78.688-2.51.341-2.23-1.078-3.64-3.082-5.68-4.513-2.04-1.43-3.6-2.41-5.86-1.385-2.52 1.14-3.53 4.247-3.93 7.052-1.02 7.114-.12 22.19-4.15 22.397-3.1-.168-2.66-17.263-4.67-25.555-.25-1.565-.6-3.31-1.89-4.183-1.72-1.176-4-.098-5.8.96-2.93 1.725-4.53 3.396-7.51 5.012-.83.448-1.95.851-2.59.154-.47-.504-.39-1.308-.22-1.98.82-3.258 2.94-5.985 4.34-9.031.59-1.29.89-3.712.39-5.042-.75-1.99-4.52-2.568-6.57-2.861-7.01-1.011-11.15-1.1-18.15-2.111-1.2-.174-4.83-1.151-3.16-2.98.63-.682 2.71-.705 3.57-.89 1.33-.282 2.86-.31 4.18-.604 5.2-1.15 7.37-1.106 12.53-2.41 1.99-.502 6.52-1.616 7.63-3.388 1.19-1.898.87-5.252-.03-7.316-.89-2.063-3.25-4.241-3.63-6.467-.1-.568-.11-1.232.3-1.626.4-.381 1.02-.348 1.55-.23 2.66.582 3.73 2.45 6.19 3.656 2.47 1.207 5.61 1.512 7.21-.761.58-.812.81-1.82 1.02-2.803 1.61-7.892 1.5-16.123 3.62-23.883v-.006zm0 106l.03-.092c.15-.566.37-1.187.88-1.445 1.26-.63 2.11 1.397 2.16 2.836a86.901 86.901 0 002.74 18.578c.81 3.077 2.15 6.51 5.08 7.51 4.61 1.575 10.08-5.99 12.3-4.044 1.44 1.165-1.63 6.291-2.98 8.777-1.08 3.49-1.37 7.134 1.32 9.177 2.68 2.041 4.24 1.675 7.51 2.307 4.68.905 9.71.83 14.32 2.05 1.09.29 2.49 1.215 1.95 2.248-.23.456-1.04 1.296-1.52 1.436-4.63 1.355-9.27.818-14.03 1.5-4.33.622-8.08 1.622-9.55 5.871-1.32 3.794 1.62 8.593 3.39 12.187.24.487.47 1.075.22 1.557-.38.728-1.78.688-2.51.341-2.23-1.078-3.64-3.082-5.68-4.513-2.04-1.43-3.6-2.41-5.86-1.385-2.52 1.14-3.53 4.247-3.93 7.052-1.02 7.114-.12 22.19-4.15 22.397-3.1-.168-2.66-17.263-4.67-25.555-.25-1.565-.6-3.31-1.89-4.183-1.72-1.176-4-.098-5.8.96-2.93 1.725-4.53 3.397-7.51 5.012-.83.448-1.95.851-2.59.154-.47-.504-.39-1.308-.22-1.98.82-3.258 2.94-5.985 4.34-9.031.59-1.29.89-3.712.39-5.042-.75-1.99-4.52-2.567-6.57-2.861-7.01-1.011-11.15-1.1-18.15-2.111-1.2-.174-4.83-1.151-3.16-2.98.63-.682 2.71-.705 3.57-.89 1.33-.282 2.86-.31 4.18-.604 5.2-1.15 7.37-1.106 12.53-2.41 1.99-.502 6.52-1.616 7.63-3.388 1.19-1.898.87-5.252-.03-7.316-.89-2.063-3.25-4.241-3.63-6.467-.1-.568-.11-1.232.3-1.626.4-.381 1.02-.348 1.55-.23 2.66.582 3.73 2.45 6.19 3.656 2.47 1.207 5.61 1.512 7.21-.761.58-.812.81-1.82 1.02-2.803 1.61-7.892 1.5-16.123 3.62-23.883v-.006zm0 106l.03-.092c.15-.566.37-1.187.88-1.445 1.26-.63 2.11 1.397 2.16 2.836a86.896 86.896 0 002.74 18.578c.81 3.077 2.15 6.51 5.08 7.509 4.61 1.576 10.08-5.988 12.3-4.043 1.44 1.165-1.63 6.291-2.98 8.777-1.08 3.49-1.37 7.134 1.32 9.177 2.68 2.041 4.24 1.675 7.51 2.307 4.68.905 9.71.829 14.32 2.05 1.09.291 2.49 1.215 1.95 2.248-.23.456-1.04 1.296-1.52 1.436-4.63 1.355-9.27.818-14.03 1.501-4.33.621-8.08 1.621-9.55 5.87-1.32 3.794 1.62 8.593 3.39 12.187.24.487.47 1.075.22 1.557-.38.728-1.78.688-2.51.341-2.23-1.078-3.64-3.082-5.68-4.513-2.04-1.43-3.6-2.41-5.86-1.385-2.52 1.139-3.53 4.247-3.93 7.052-1.02 7.114-.12 22.19-4.15 22.397-3.1-.168-2.66-17.263-4.67-25.555-.25-1.565-.6-3.309-1.89-4.183-1.72-1.176-4-.098-5.8.96-2.93 1.725-4.53 3.397-7.51 5.012-.83.448-1.95.851-2.59.154-.47-.504-.39-1.308-.22-1.979.82-3.259 2.94-5.986 4.34-9.032.59-1.291.89-3.712.39-5.042-.75-1.991-4.52-2.567-6.57-2.861-7.01-1.011-11.15-1.101-18.15-2.111-1.2-.174-4.83-1.151-3.16-2.979.63-.683 2.71-.706 3.57-.89 1.33-.283 2.86-.311 4.18-.605 5.2-1.151 7.37-1.106 12.53-2.411 1.99-.501 6.52-1.615 7.63-3.387 1.19-1.898.87-5.252-.03-7.316-.89-2.063-3.25-4.241-3.63-6.467-.1-.568-.11-1.232.3-1.626.4-.381 1.02-.348 1.55-.23 2.66.582 3.73 2.45 6.19 3.656 2.47 1.207 5.61 1.512 7.21-.761.58-.812.81-1.82 1.02-2.803 1.61-7.892 1.5-16.123 3.62-23.883v-.006zm-100-40l.03-.092c.15-.566.37-1.187.88-1.445 1.26-.63 2.11 1.397 2.16 2.836a86.892 86.892 0 002.74 18.578c.81 3.077 2.15 6.51 5.08 7.509 4.61 1.576 10.08-5.988 12.3-4.043 1.44 1.165-1.63 6.291-2.98 8.777-1.08 3.49-1.37 7.134 1.32 9.177 2.68 2.041 4.24 1.675 7.51 2.307 4.68.905 9.71.829 14.32 2.05 1.09.291 2.49 1.215 1.95 2.248-.23.456-1.04 1.296-1.52 1.436-4.63 1.355-9.27.818-14.03 1.501-4.33.621-8.08 1.621-9.55 5.87-1.32 3.794 1.62 8.593 3.39 12.187.24.487.47 1.075.22 1.557-.38.728-1.78.688-2.51.341-2.23-1.078-3.64-3.082-5.68-4.513-2.04-1.43-3.6-2.41-5.86-1.385-2.52 1.139-3.53 4.247-3.93 7.052-1.02 7.114-.12 22.19-4.15 22.397-3.1-.168-2.66-17.263-4.67-25.555-.25-1.565-.6-3.309-1.89-4.183-1.72-1.176-4-.098-5.8.96-2.93 1.725-4.53 3.397-7.51 5.012-.83.448-1.95.851-2.59.154-.47-.504-.39-1.308-.22-1.979.82-3.259 2.94-5.986 4.34-9.032.59-1.291.89-3.712.39-5.042-.75-1.991-4.52-2.567-6.57-2.861-7.01-1.011-11.15-1.101-18.15-2.111-1.2-.174-4.83-1.151-3.16-2.979.63-.683 2.71-.706 3.57-.89 1.33-.283 2.86-.311 4.18-.605 5.2-1.151 7.37-1.106 12.53-2.411 1.99-.501 6.52-1.615 7.63-3.387 1.19-1.898.87-5.252-.03-7.316-.89-2.063-3.25-4.241-3.63-6.467-.1-.568-.11-1.232.3-1.626.4-.381 1.02-.348 1.55-.23 2.66.582 3.73 2.45 6.19 3.656 2.47 1.207 5.61 1.512 7.21-.761.58-.812.81-1.82 1.02-2.803 1.61-7.892 1.5-16.123 3.62-23.883v-.006zm0-106l.03-.092c.15-.566.37-1.187.88-1.445 1.26-.63 2.11 1.397 2.16 2.836a86.9 86.9 0 002.74 18.578c.81 3.077 2.15 6.51 5.08 7.51 4.61 1.575 10.08-5.99 12.3-4.044 1.44 1.165-1.63 6.291-2.98 8.777-1.08 3.49-1.37 7.134 1.32 9.177 2.68 2.041 4.24 1.675 7.51 2.307 4.68.905 9.71.83 14.32 2.05 1.09.29 2.49 1.215 1.95 2.248-.23.456-1.04 1.296-1.52 1.436-4.63 1.355-9.27.818-14.03 1.5-4.33.622-8.08 1.622-9.55 5.871-1.32 3.794 1.62 8.593 3.39 12.187.24.487.47 1.075.22 1.557-.38.728-1.78.688-2.51.341-2.23-1.078-3.64-3.082-5.68-4.513-2.04-1.43-3.6-2.41-5.86-1.385-2.52 1.14-3.53 4.247-3.93 7.052-1.02 7.114-.12 22.19-4.15 22.397-3.1-.168-2.66-17.263-4.67-25.555-.25-1.565-.6-3.31-1.89-4.183-1.72-1.176-4-.098-5.8.96-2.93 1.725-4.53 3.396-7.51 5.012-.83.448-1.95.851-2.59.154-.47-.504-.39-1.308-.22-1.98.82-3.258 2.94-5.985 4.34-9.031.59-1.29.89-3.712.39-5.042-.75-1.99-4.52-2.568-6.57-2.861-7.01-1.011-11.15-1.1-18.15-2.111-1.2-.174-4.83-1.151-3.16-2.98.63-.682 2.71-.705 3.57-.89 1.33-.282 2.86-.31 4.18-.604 5.2-1.15 7.37-1.106 12.53-2.41 1.99-.502 6.52-1.616 7.63-3.388 1.19-1.899.87-5.252-.03-7.316-.89-2.063-3.25-4.241-3.63-6.467-.1-.568-.11-1.232.3-1.626.4-.381 1.02-.348 1.55-.23 2.66.582 3.73 2.45 6.19 3.656 2.47 1.207 5.61 1.512 7.21-.761.58-.812.81-1.82 1.02-2.803 1.61-7.892 1.5-16.123 3.62-23.883v-.006z"/><path d="M1094.57 85.655l.03-.092c.15-.566.37-1.187.88-1.445 1.26-.63 2.11 1.397 2.16 2.836a86.892 86.892 0 002.74 18.578c.81 3.077 2.15 6.51 5.08 7.509 4.61 1.576 10.08-5.988 12.3-4.043 1.44 1.165-1.63 6.291-2.98 8.777-1.08 3.49-1.37 7.134 1.32 9.177 2.68 2.041 4.24 1.675 7.51 2.307 4.68.905 9.71.829 14.32 2.05 1.09.291 2.49 1.215 1.95 2.248-.23.456-1.04 1.296-1.52 1.436-4.63 1.355-9.27.818-14.03 1.501-4.33.621-8.08 1.621-9.55 5.87-1.32 3.794 1.62 8.593 3.39 12.187.24.487.47 1.075.22 1.557-.38.728-1.78.688-2.51.341-2.23-1.078-3.64-3.082-5.68-4.513-2.04-1.43-3.6-2.41-5.86-1.385-2.52 1.139-3.53 4.247-3.93 7.052-1.02 7.114-.12 22.19-4.15 22.397-3.1-.168-2.66-17.263-4.67-25.555-.25-1.565-.6-3.309-1.89-4.183-1.72-1.176-4-.098-5.8.96-2.93 1.725-4.53 3.397-7.51 5.012-.83.448-1.95.851-2.59.154-.47-.504-.39-1.308-.22-1.979.82-3.259 2.94-5.986 4.34-9.032.59-1.291.89-3.712.39-5.042-.75-1.991-4.52-2.567-6.57-2.861-7.01-1.011-11.15-1.101-18.15-2.111-1.2-.174-4.83-1.151-3.16-2.979.63-.683 2.71-.706 3.57-.89 1.33-.283 2.86-.311 4.18-.605 5.2-1.151 7.37-1.106 12.53-2.411 1.99-.501 6.52-1.615 7.63-3.387 1.19-1.898.87-5.252-.03-7.316-.89-2.063-3.25-4.241-3.63-6.467-.1-.568-.11-1.232.3-1.626.4-.381 1.02-.348 1.55-.23 2.66.582 3.73 2.45 6.19 3.656 2.47 1.207 5.61 1.512 7.21-.761.58-.812.81-1.82 1.02-2.803 1.61-7.892 1.5-16.123 3.62-23.883v-.006zm0-106l.03-.092c.15-.566.37-1.187.88-1.445 1.26-.63 2.11 1.397 2.16 2.836a86.9 86.9 0 002.74 18.578c.81 3.077 2.15 6.51 5.08 7.51 4.61 1.575 10.08-5.99 12.3-4.044 1.44 1.165-1.63 6.291-2.98 8.777-1.08 3.49-1.37 7.134 1.32 9.177 2.68 2.041 4.24 1.675 7.51 2.307 4.68.905 9.71.83 14.32 2.05 1.09.29 2.49 1.215 1.95 2.248-.23.456-1.04 1.296-1.52 1.436-4.63 1.355-9.27.818-14.03 1.5-4.33.622-8.08 1.622-9.55 5.871-1.32 3.794 1.62 8.593 3.39 12.187.24.487.47 1.075.22 1.557-.38.728-1.78.688-2.51.341-2.23-1.078-3.64-3.082-5.68-4.513-2.04-1.43-3.6-2.41-5.86-1.385-2.52 1.14-3.53 4.247-3.93 7.052-1.02 7.114-.12 22.19-4.15 22.397-3.1-.168-2.66-17.263-4.67-25.555-.25-1.565-.6-3.31-1.89-4.183-1.72-1.176-4-.098-5.8.96-2.93 1.725-4.53 3.396-7.51 5.012-.83.448-1.95.851-2.59.154-.47-.504-.39-1.308-.22-1.98.82-3.258 2.94-5.985 4.34-9.031.59-1.29.89-3.712.39-5.042-.75-1.99-4.52-2.568-6.57-2.861-7.01-1.011-11.15-1.1-18.15-2.111-1.2-.174-4.83-1.151-3.16-2.98.63-.682 2.71-.705 3.57-.89 1.33-.282 2.86-.31 4.18-.604 5.2-1.15 7.37-1.106 12.53-2.41 1.99-.502 6.52-1.616 7.63-3.388 1.19-1.899.87-5.252-.03-7.316-.89-2.063-3.25-4.241-3.63-6.467-.1-.568-.11-1.232.3-1.626.4-.381 1.02-.348 1.55-.23 2.66.582 3.73 2.45 6.19 3.656 2.47 1.207 5.61 1.512 7.21-.761.58-.812.81-1.82 1.02-2.803 1.61-7.892 1.5-16.123 3.62-23.883v-.006zm-99.999 66l.024-.092c.154-.566.372-1.187.884-1.445 1.256-.63 2.111 1.397 2.166 2.836a86.958 86.958 0 002.735 18.578c.81 3.077 2.15 6.51 5.08 7.51 4.61 1.575 10.08-5.99 12.3-4.043 1.44 1.164-1.63 6.29-2.98 8.776-1.08 3.49-1.37 7.134 1.32 9.177 2.68 2.041 4.24 1.675 7.51 2.307 4.68.905 9.71.83 14.32 2.05 1.09.29 2.49 1.215 1.95 2.248-.23.456-1.04 1.296-1.52 1.436-4.63 1.355-9.27.818-14.03 1.5-4.33.622-8.08 1.622-9.55 5.871-1.32 3.794 1.62 8.593 3.39 12.187.24.487.47 1.075.22 1.557-.38.728-1.78.688-2.51.341-2.23-1.078-3.64-3.082-5.68-4.513-2.04-1.43-3.6-2.41-5.86-1.385-2.52 1.139-3.53 4.247-3.93 7.052-1.023 7.114-.12 22.19-4.155 22.397-3.099-.168-2.656-17.263-4.666-25.555-.247-1.565-.603-3.309-1.886-4.183-1.726-1.176-4.005-.098-5.804.96-2.925 1.725-4.526 3.397-7.507 5.012-.829.448-1.952.851-2.594.154-.465-.504-.384-1.308-.216-1.979.823-3.259 2.942-5.986 4.334-9.032.591-1.291.898-3.712.397-5.042-.752-1.99-4.524-2.567-6.573-2.861-7.009-1.011-11.145-1.1-18.152-2.111-1.199-.174-4.827-1.151-3.155-2.98.624-.682 2.702-.705 3.568-.89 1.327-.282 2.857-.31 4.184-.604 5.193-1.15 7.369-1.106 12.527-2.41 1.983-.502 6.523-1.616 7.63-3.388 1.186-1.898.866-5.252-.029-7.316-.896-2.063-3.257-4.241-3.637-6.467-.098-.568-.103-1.232.307-1.626.396-.381 1.015-.348 1.544-.23 2.664.582 3.736 2.45 6.197 3.656 2.461 1.207 5.609 1.512 7.209-.761.573-.812.812-1.82 1.013-2.803 1.611-7.892 1.5-16.123 3.621-23.883l.004-.006zm0-106l.024-.092c.154-.566.372-1.187.884-1.445 1.256-.63 2.111 1.397 2.166 2.836a86.958 86.958 0 002.735 18.578c.81 3.077 2.15 6.51 5.08 7.51 4.61 1.575 10.08-5.99 12.3-4.044 1.44 1.165-1.63 6.291-2.98 8.777-1.08 3.49-1.37 7.134 1.32 9.177 2.68 2.041 4.24 1.675 7.51 2.307 4.68.905 9.71.83 14.32 2.05 1.09.29 2.49 1.215 1.95 2.248-.23.456-1.04 1.296-1.52 1.436-4.63 1.355-9.27.817-14.03 1.5-4.33.622-8.08 1.622-9.55 5.871-1.32 3.794 1.62 8.593 3.39 12.187.24.487.47 1.075.22 1.557-.38.728-1.78.688-2.51.341-2.23-1.078-3.64-3.082-5.68-4.513-2.04-1.43-3.6-2.41-5.86-1.385-2.52 1.14-3.53 4.247-3.93 7.052-1.023 7.114-.12 22.19-4.155 22.397-3.099-.168-2.656-17.263-4.666-25.555-.247-1.565-.603-3.31-1.886-4.183-1.726-1.176-4.005-.098-5.804.96-2.925 1.725-4.526 3.397-7.507 5.012-.829.448-1.952.851-2.594.154-.465-.504-.384-1.308-.216-1.98.823-3.258 2.942-5.985 4.334-9.031.591-1.29.898-3.712.397-5.042-.752-1.99-4.524-2.567-6.573-2.861-7.009-1.011-11.145-1.1-18.152-2.111-1.199-.174-4.827-1.151-3.155-2.98.624-.682 2.702-.705 3.568-.89 1.327-.282 2.857-.31 4.184-.604 5.193-1.15 7.369-1.106 12.527-2.41 1.983-.502 6.523-1.616 7.63-3.388 1.186-1.899.866-5.252-.029-7.316-.896-2.063-3.257-4.241-3.637-6.467-.098-.568-.103-1.232.307-1.626.396-.381 1.015-.348 1.544-.23 2.664.582 3.736 2.45 6.197 3.656 2.461 1.207 5.609 1.512 7.209-.761.573-.812.812-1.82 1.013-2.803 1.611-7.892 1.5-16.123 3.621-23.883l.004-.006z"/><path d="M994.571 45.655l.024-.092c.154-.566.372-1.187.884-1.445 1.256-.63 2.111 1.397 2.166 2.836a86.958 86.958 0 002.735 18.578c.81 3.077 2.15 6.51 5.08 7.51 4.61 1.575 10.08-5.99 12.3-4.043 1.44 1.164-1.63 6.29-2.98 8.776-1.08 3.49-1.37 7.134 1.32 9.177 2.68 2.041 4.24 1.675 7.51 2.307 4.68.905 9.71.83 14.32 2.05 1.09.29 2.49 1.215 1.95 2.248-.23.456-1.04 1.296-1.52 1.436-4.63 1.355-9.27.818-14.03 1.5-4.33.622-8.08 1.622-9.55 5.871-1.32 3.794 1.62 8.593 3.39 12.187.24.487.47 1.075.22 1.557-.38.728-1.78.688-2.51.341-2.23-1.078-3.64-3.082-5.68-4.513-2.04-1.43-3.6-2.41-5.86-1.385-2.52 1.139-3.53 4.247-3.93 7.052-1.023 7.114-.12 22.19-4.155 22.397-3.099-.168-2.656-17.263-4.666-25.555-.247-1.565-.603-3.309-1.886-4.183-1.726-1.176-4.005-.098-5.804.96-2.925 1.725-4.526 3.397-7.507 5.012-.829.448-1.952.851-2.594.154-.465-.504-.384-1.308-.216-1.979.823-3.259 2.942-5.986 4.334-9.032.591-1.291.898-3.712.397-5.042-.752-1.99-4.524-2.567-6.573-2.861-7.009-1.011-11.145-1.1-18.152-2.111-1.199-.174-4.827-1.151-3.155-2.98.624-.682 2.702-.705 3.568-.89 1.327-.282 2.857-.31 4.184-.604 5.193-1.15 7.369-1.106 12.527-2.41 1.983-.502 6.523-1.616 7.63-3.388 1.186-1.898.866-5.252-.029-7.316-.896-2.063-3.257-4.241-3.637-6.467-.098-.568-.103-1.232.307-1.626.396-.381 1.015-.348 1.544-.23 2.664.582 3.736 2.45 6.197 3.656 2.461 1.207 5.609 1.512 7.209-.761.573-.812.812-1.82 1.013-2.803 1.611-7.892 1.5-16.123 3.621-23.883l.004-.006zm0 106l.024-.092c.154-.566.372-1.187.884-1.445 1.256-.63 2.111 1.397 2.166 2.836a86.952 86.952 0 002.735 18.578c.81 3.077 2.15 6.51 5.08 7.509 4.61 1.576 10.08-5.988 12.3-4.043 1.44 1.165-1.63 6.291-2.98 8.777-1.08 3.49-1.37 7.134 1.32 9.177 2.68 2.041 4.24 1.675 7.51 2.307 4.68.905 9.71.829 14.32 2.05 1.09.291 2.49 1.215 1.95 2.248-.23.456-1.04 1.296-1.52 1.436-4.63 1.355-9.27.818-14.03 1.501-4.33.621-8.08 1.621-9.55 5.87-1.32 3.794 1.62 8.593 3.39 12.187.24.487.47 1.075.22 1.557-.38.728-1.78.688-2.51.341-2.23-1.078-3.64-3.082-5.68-4.513-2.04-1.43-3.6-2.41-5.86-1.385-2.52 1.139-3.53 4.247-3.93 7.052-1.023 7.114-.12 22.19-4.155 22.397-3.099-.168-2.656-17.263-4.666-25.555-.247-1.565-.603-3.309-1.886-4.183-1.726-1.176-4.005-.098-5.804.96-2.925 1.725-4.526 3.397-7.507 5.012-.829.448-1.952.851-2.594.154-.465-.504-.384-1.308-.216-1.979.823-3.259 2.942-5.986 4.334-9.032.591-1.291.898-3.712.397-5.042-.752-1.991-4.524-2.567-6.573-2.861-7.009-1.011-11.145-1.101-18.152-2.111-1.199-.174-4.827-1.151-3.155-2.979.624-.683 2.702-.706 3.568-.89 1.327-.283 2.857-.311 4.184-.605 5.193-1.151 7.369-1.106 12.527-2.411 1.983-.501 6.523-1.615 7.63-3.387 1.186-1.898.866-5.252-.029-7.316-.896-2.063-3.257-4.241-3.637-6.467-.098-.568-.103-1.232.307-1.626.396-.381 1.015-.348 1.544-.23 2.664.582 3.736 2.45 6.197 3.656 2.461 1.207 5.609 1.512 7.209-.761.573-.812.812-1.82 1.013-2.803 1.611-7.892 1.5-16.123 3.621-23.883l.004-.006zm-100-146l.024-.092c.154-.566.372-1.187.884-1.445 1.256-.63 2.111 1.397 2.166 2.836a86.65 86.65 0 002.74 18.578c.804 3.077 2.141 6.51 5.074 7.51 4.616 1.575 10.083-5.99 12.296-4.044 1.444 1.165-1.627 6.291-2.978 8.777-1.078 3.49-1.363 7.134 1.318 9.177 2.68 2.041 4.244 1.675 7.519 2.307 4.678.905 9.703.83 14.313 2.05 1.095.29 2.488 1.215 1.956 2.248-.237.456-1.042 1.296-1.525 1.436-4.626 1.355-9.268.817-14.03 1.5-4.331.622-8.08 1.622-9.551 5.871-1.314 3.794 1.627 8.593 3.394 12.187.238.487.467 1.075.217 1.557-.375.728-1.783.688-2.505.341-2.235-1.078-3.638-3.082-5.678-4.513-2.041-1.43-3.609-2.41-5.87-1.385-2.515 1.14-3.527 4.247-3.928 7.052-1.02 7.114-.114 22.19-4.152 22.397-3.099-.168-2.656-17.263-4.666-25.555-.247-1.565-.603-3.31-1.886-4.183-1.726-1.176-4.005-.098-5.804.96-2.925 1.725-4.526 3.397-7.507 5.012-.829.448-1.952.851-2.594.154-.465-.504-.384-1.308-.216-1.98.823-3.258 2.942-5.985 4.334-9.031.591-1.29.898-3.712.397-5.042-.752-1.99-4.524-2.568-6.573-2.861-7.009-1.011-11.145-1.1-18.152-2.111-1.199-.174-4.827-1.151-3.155-2.98.624-.682 2.702-.705 3.568-.89 1.327-.282 2.857-.31 4.184-.604 5.193-1.15 7.369-1.106 12.527-2.41 1.983-.502 6.523-1.616 7.63-3.388 1.186-1.898.866-5.252-.029-7.316-.896-2.063-3.257-4.241-3.637-6.467-.098-.568-.103-1.232.307-1.626.396-.381 1.015-.348 1.544-.23 2.664.582 3.736 2.45 6.197 3.656 2.461 1.207 5.609 1.512 7.209-.761.573-.812.812-1.82 1.013-2.803 1.611-7.892 1.5-16.123 3.621-23.883l.004-.006zm0 106l.024-.092c.154-.566.372-1.187.884-1.445 1.256-.63 2.111 1.397 2.166 2.836a86.645 86.645 0 002.74 18.578c.804 3.077 2.141 6.51 5.074 7.509 4.616 1.576 10.083-5.988 12.296-4.043 1.444 1.165-1.627 6.291-2.978 8.777-1.078 3.49-1.363 7.134 1.318 9.177 2.68 2.041 4.244 1.675 7.519 2.307 4.678.905 9.703.829 14.313 2.05 1.095.291 2.488 1.215 1.956 2.248-.237.456-1.042 1.296-1.525 1.436-4.626 1.355-9.268.818-14.03 1.501-4.331.621-8.08 1.621-9.551 5.87-1.314 3.794 1.627 8.593 3.394 12.187.238.487.467 1.075.217 1.557-.375.728-1.783.688-2.505.341-2.235-1.078-3.638-3.082-5.678-4.513-2.041-1.43-3.609-2.41-5.87-1.385-2.515 1.139-3.527 4.247-3.928 7.052-1.02 7.114-.114 22.19-4.152 22.397-3.099-.168-2.656-17.263-4.666-25.555-.247-1.565-.603-3.309-1.886-4.183-1.726-1.176-4.005-.098-5.804.96-2.925 1.725-4.526 3.397-7.507 5.012-.829.448-1.952.851-2.594.154-.465-.504-.384-1.308-.216-1.979.823-3.259 2.942-5.986 4.334-9.032.591-1.291.898-3.712.397-5.042-.752-1.991-4.524-2.567-6.573-2.861-7.009-1.011-11.145-1.101-18.152-2.111-1.199-.174-4.827-1.151-3.155-2.979.624-.683 2.702-.706 3.568-.89 1.327-.283 2.857-.311 4.184-.605 5.193-1.151 7.369-1.106 12.527-2.411 1.983-.501 6.523-1.615 7.63-3.387 1.186-1.898.866-5.252-.029-7.316-.896-2.063-3.257-4.241-3.637-6.467-.098-.568-.103-1.232.307-1.626.396-.381 1.015-.348 1.544-.23 2.664.582 3.736 2.45 6.197 3.656 2.461 1.207 5.609 1.512 7.209-.761.573-.812.812-1.82 1.013-2.803 1.611-7.892 1.5-16.123 3.621-23.883l.004-.006zm-100-146l.024-.092c.154-.566.372-1.187.884-1.445 1.256-.63 2.111 1.397 2.166 2.836a86.65 86.65 0 002.74 18.578c.804 3.077 2.141 6.51 5.074 7.51 4.616 1.575 10.083-5.99 12.296-4.043 1.444 1.164-1.627 6.29-2.978 8.776-1.078 3.49-1.363 7.134 1.318 9.177 2.68 2.041 4.244 1.675 7.519 2.307 4.678.905 9.703.83 14.313 2.05 1.095.29 2.488 1.215 1.956 2.248-.237.456-1.042 1.296-1.525 1.436-4.626 1.355-9.268.817-14.03 1.5-4.331.622-8.08 1.622-9.551 5.871-1.314 3.794 1.627 8.593 3.394 12.187.238.487.467 1.075.217 1.557-.375.728-1.783.688-2.505.341-2.235-1.078-3.638-3.082-5.678-4.513-2.041-1.43-3.609-2.41-5.87-1.385-2.515 1.14-3.527 4.247-3.928 7.052-1.02 7.114-.114 22.19-4.152 22.397-3.099-.168-2.656-17.263-4.666-25.555-.247-1.565-.603-3.31-1.886-4.183-1.726-1.176-4.005-.098-5.804.96-2.925 1.725-4.526 3.396-7.507 5.012-.829.448-1.952.851-2.594.154-.465-.504-.384-1.308-.216-1.98.823-3.258 2.942-5.985 4.334-9.031.591-1.29.898-3.712.397-5.042-.752-1.99-4.524-2.568-6.573-2.861-7.009-1.011-11.145-1.1-18.152-2.111-1.199-.174-4.827-1.151-3.155-2.98.624-.682 2.702-.705 3.568-.89 1.327-.282 2.857-.31 4.184-.604 5.193-1.15 7.369-1.106 12.527-2.41 1.983-.502 6.523-1.616 7.63-3.388 1.186-1.898.866-5.252-.029-7.316-.896-2.063-3.257-4.241-3.637-6.467-.098-.568-.103-1.232.307-1.626.396-.381 1.015-.348 1.544-.23 2.664.582 3.736 2.45 6.197 3.656 2.461 1.207 5.609 1.512 7.209-.761.573-.812.812-1.82 1.013-2.803 1.611-7.892 1.5-16.123 3.621-23.883l.004-.006zm0 106l.024-.092c.154-.566.372-1.187.884-1.445 1.256-.63 2.111 1.397 2.166 2.836a86.65 86.65 0 002.74 18.579c.804 3.076 2.141 6.509 5.074 7.508 4.616 1.576 10.083-5.988 12.296-4.042 1.444 1.164-1.627 6.29-2.978 8.776-1.078 3.49-1.363 7.134 1.318 9.177 2.68 2.041 4.244 1.675 7.519 2.307 4.678.905 9.703.829 14.313 2.05 1.095.291 2.488 1.215 1.956 2.248-.237.456-1.042 1.296-1.525 1.436-4.626 1.355-9.268.818-14.03 1.501-4.331.621-8.08 1.621-9.551 5.87-1.314 3.794 1.627 8.593 3.394 12.187.238.487.467 1.075.217 1.557-.375.728-1.783.688-2.505.341-2.235-1.078-3.638-3.082-5.678-4.513-2.041-1.43-3.609-2.41-5.87-1.385-2.515 1.139-3.527 4.247-3.928 7.052-1.02 7.114-.114 22.19-4.152 22.397-3.099-.168-2.656-17.263-4.666-25.555-.247-1.565-.603-3.309-1.886-4.183-1.726-1.176-4.005-.098-5.804.96-2.925 1.725-4.526 3.397-7.507 5.012-.829.448-1.952.851-2.594.154-.465-.504-.384-1.308-.216-1.979.823-3.259 2.942-5.986 4.334-9.032.591-1.291.898-3.712.397-5.042-.752-1.991-4.524-2.567-6.573-2.861-7.009-1.011-11.145-1.101-18.152-2.111-1.199-.174-4.827-1.151-3.155-2.979.624-.683 2.702-.706 3.568-.89 1.327-.283 2.857-.311 4.184-.605 5.193-1.151 7.369-1.106 12.527-2.411 1.983-.501 6.523-1.615 7.63-3.387 1.186-1.898.866-5.252-.029-7.316-.896-2.063-3.257-4.241-3.637-6.467-.098-.568-.103-1.232.307-1.626.396-.381 1.015-.348 1.544-.23 2.664.582 3.736 2.45 6.197 3.656 2.461 1.207 5.609 1.512 7.209-.761.573-.812.812-1.82 1.013-2.803 1.611-7.892 1.5-16.123 3.621-23.883l.004-.006zm-100-146l.024-.092c.154-.566.372-1.187.884-1.445 1.256-.63 2.111 1.397 2.166 2.836a86.65 86.65 0 002.74 18.579c.804 3.076 2.141 6.509 5.074 7.508 4.616 1.576 10.083-5.988 12.296-4.042 1.444 1.164-1.627 6.29-2.978 8.776-1.078 3.49-1.363 7.134 1.318 9.177 2.68 2.041 4.244 1.675 7.519 2.307 4.678.905 9.703.83 14.313 2.05 1.095.29 2.488 1.215 1.956 2.248-.237.456-1.042 1.296-1.525 1.436-4.626 1.355-9.268.818-14.03 1.5-4.331.622-8.08 1.622-9.551 5.871-1.314 3.794 1.627 8.593 3.394 12.187.238.487.467 1.075.217 1.557-.375.728-1.783.688-2.505.341-2.235-1.078-3.638-3.082-5.678-4.513-2.041-1.43-3.609-2.41-5.87-1.385-2.515 1.14-3.527 4.247-3.928 7.052-1.02 7.114-.114 22.19-4.152 22.397-3.099-.168-2.656-17.263-4.666-25.555-.247-1.565-.603-3.31-1.886-4.183-1.726-1.176-4.005-.098-5.804.96-2.925 1.725-4.526 3.397-7.507 5.012-.829.448-1.952.851-2.594.154-.465-.504-.384-1.308-.216-1.98.823-3.258 2.942-5.985 4.334-9.031.591-1.29.898-3.712.397-5.042-.752-1.99-4.524-2.568-6.573-2.861-7.009-1.011-11.145-1.1-18.152-2.111-1.199-.174-4.827-1.151-3.155-2.98.624-.682 2.702-.705 3.568-.89 1.327-.282 2.857-.31 4.184-.604 5.193-1.15 7.369-1.106 12.527-2.41 1.983-.502 6.523-1.616 7.63-3.388 1.186-1.898.866-5.252-.029-7.316-.896-2.063-3.257-4.241-3.637-6.467-.098-.568-.103-1.232.307-1.626.396-.381 1.015-.348 1.544-.23 2.664.582 3.736 2.45 6.197 3.656 2.461 1.207 5.609 1.512 7.209-.761.573-.812.812-1.82 1.013-2.803 1.611-7.892 1.5-16.123 3.621-23.883l.004-.006zm0 106l.024-.092c.154-.566.372-1.187.884-1.445 1.256-.63 2.111 1.397 2.166 2.836a86.65 86.65 0 002.74 18.578c.804 3.077 2.141 6.51 5.074 7.51 4.616 1.575 10.083-5.99 12.296-4.044 1.444 1.165-1.627 6.291-2.978 8.777-1.078 3.49-1.363 7.134 1.318 9.177 2.68 2.041 4.244 1.675 7.519 2.307 4.678.905 9.703.83 14.313 2.05 1.095.29 2.488 1.215 1.956 2.248-.237.456-1.042 1.296-1.525 1.436-4.626 1.355-9.268.818-14.03 1.5-4.331.622-8.08 1.622-9.551 5.871-1.314 3.794 1.627 8.593 3.394 12.187.238.487.467 1.075.217 1.557-.375.728-1.783.688-2.505.341-2.235-1.078-3.638-3.082-5.678-4.513-2.041-1.43-3.609-2.41-5.87-1.385-2.515 1.14-3.527 4.247-3.928 7.052-1.02 7.114-.114 22.19-4.152 22.397-3.099-.168-2.656-17.263-4.666-25.555-.247-1.565-.603-3.31-1.886-4.183-1.726-1.176-4.005-.098-5.804.96-2.925 1.725-4.526 3.397-7.507 5.012-.829.448-1.952.851-2.594.154-.465-.504-.384-1.308-.216-1.979.823-3.26 2.942-5.986 4.334-9.032.591-1.29.898-3.712.397-5.042-.752-1.99-4.524-2.567-6.573-2.861-7.009-1.011-11.145-1.1-18.152-2.111-1.199-.174-4.827-1.151-3.155-2.98.624-.682 2.702-.705 3.568-.89 1.327-.282 2.857-.31 4.184-.604 5.193-1.15 7.369-1.106 12.527-2.41 1.983-.502 6.523-1.616 7.63-3.388 1.186-1.898.866-5.252-.029-7.316-.896-2.063-3.257-4.241-3.637-6.467-.098-.568-.103-1.232.307-1.626.396-.381 1.015-.348 1.544-.23 2.664.582 3.736 2.45 6.197 3.656 2.461 1.207 5.609 1.512 7.209-.761.573-.812.812-1.82 1.013-2.803 1.611-7.892 1.5-16.123 3.621-23.883l.004-.006zm0 106l.024-.092c.154-.566.372-1.187.884-1.445 1.256-.63 2.111 1.397 2.166 2.836a86.645 86.645 0 002.74 18.578c.804 3.077 2.141 6.51 5.074 7.509 4.616 1.576 10.083-5.988 12.296-4.043 1.444 1.165-1.627 6.291-2.978 8.777-1.078 3.49-1.363 7.134 1.318 9.177 2.68 2.041 4.244 1.675 7.519 2.307 4.678.905 9.703.829 14.313 2.05 1.095.291 2.488 1.215 1.956 2.248-.237.456-1.042 1.296-1.525 1.436-4.626 1.355-9.268.818-14.03 1.501-4.331.621-8.08 1.621-9.551 5.87-1.314 3.794 1.627 8.593 3.394 12.187.238.487.467 1.075.217 1.557-.375.728-1.783.688-2.505.341-2.235-1.078-3.638-3.082-5.678-4.513-2.041-1.43-3.609-2.41-5.87-1.385-2.515 1.139-3.527 4.247-3.928 7.052-1.02 7.114-.114 22.19-4.152 22.397-3.099-.168-2.656-17.263-4.666-25.555-.247-1.565-.603-3.309-1.886-4.183-1.726-1.176-4.005-.098-5.804.96-2.925 1.725-4.526 3.397-7.507 5.012-.829.448-1.952.851-2.594.154-.465-.504-.384-1.308-.216-1.979.823-3.259 2.942-5.986 4.334-9.032.591-1.291.898-3.712.397-5.042-.752-1.991-4.524-2.567-6.573-2.861-7.009-1.011-11.145-1.101-18.152-2.111-1.199-.174-4.827-1.151-3.155-2.979.624-.683 2.702-.706 3.568-.89 1.327-.283 2.857-.311 4.184-.605 5.193-1.151 7.369-1.106 12.527-2.411 1.983-.501 6.523-1.615 7.63-3.387 1.186-1.898.866-5.252-.029-7.316-.896-2.063-3.257-4.241-3.637-6.467-.098-.568-.103-1.232.307-1.626.396-.381 1.015-.348 1.544-.23 2.664.582 3.736 2.45 6.197 3.656 2.461 1.207 5.609 1.512 7.209-.761.573-.812.812-1.82 1.013-2.803 1.611-7.892 1.5-16.123 3.621-23.883l.004-.006zm-100-146l.024-.092c.154-.566.372-1.187.884-1.445 1.256-.63 2.111 1.397 2.166 2.836a86.65 86.65 0 002.74 18.578c.804 3.077 2.141 6.51 5.074 7.51 4.616 1.575 10.083-5.99 12.296-4.044 1.444 1.165-1.627 6.291-2.978 8.777-1.078 3.49-1.363 7.134 1.318 9.177 2.68 2.041 4.244 1.675 7.519 2.307 4.678.905 9.703.83 14.313 2.05 1.095.29 2.488 1.215 1.956 2.248-.237.456-1.042 1.296-1.525 1.436-4.626 1.355-9.268.817-14.03 1.5-4.331.622-8.08 1.622-9.551 5.871-1.314 3.794 1.627 8.593 3.394 12.187.238.487.467 1.075.217 1.557-.375.728-1.783.688-2.505.341-2.235-1.078-3.638-3.082-5.678-4.513-2.041-1.43-3.609-2.41-5.87-1.385-2.515 1.14-3.527 4.247-3.928 7.052-1.02 7.114-.114 22.19-4.152 22.397-3.099-.168-2.656-17.263-4.666-25.555-.247-1.565-.603-3.31-1.886-4.183-1.726-1.176-4.005-.098-5.804.96-2.925 1.725-4.526 3.396-7.507 5.012-.829.448-1.952.851-2.594.154-.465-.504-.384-1.308-.216-1.98.823-3.258 2.942-5.985 4.334-9.031.591-1.29.898-3.712.397-5.042-.752-1.99-4.524-2.568-6.573-2.861-7.009-1.011-11.145-1.1-18.152-2.111-1.199-.174-4.827-1.151-3.155-2.98.624-.682 2.702-.705 3.568-.89 1.327-.282 2.857-.31 4.184-.604 5.193-1.15 7.369-1.106 12.527-2.41 1.983-.502 6.523-1.616 7.63-3.388 1.186-1.899.866-5.252-.029-7.316-.896-2.063-3.257-4.241-3.637-6.467-.098-.568-.103-1.232.307-1.626.396-.381 1.015-.348 1.544-.23 2.664.582 3.736 2.45 6.197 3.656 2.461 1.207 5.609 1.512 7.209-.761.573-.812.812-1.82 1.013-2.803 1.611-7.892 1.5-16.123 3.621-23.883l.004-.006zm0 106l.024-.092c.154-.566.372-1.187.884-1.445 1.256-.63 2.111 1.397 2.166 2.836a86.645 86.645 0 002.74 18.578c.804 3.077 2.141 6.51 5.074 7.509 4.616 1.576 10.083-5.988 12.296-4.043 1.444 1.165-1.627 6.291-2.978 8.777-1.078 3.49-1.363 7.134 1.318 9.177 2.68 2.041 4.244 1.675 7.519 2.307 4.678.905 9.703.829 14.313 2.05 1.095.291 2.488 1.215 1.956 2.248-.237.456-1.042 1.296-1.525 1.436-4.626 1.355-9.268.818-14.03 1.501-4.331.621-8.08 1.621-9.551 5.87-1.314 3.794 1.627 8.593 3.394 12.187.238.487.467 1.075.217 1.557-.375.728-1.783.688-2.505.341-2.235-1.078-3.638-3.082-5.678-4.513-2.041-1.43-3.609-2.41-5.87-1.385-2.515 1.139-3.527 4.247-3.928 7.052-1.02 7.114-.114 22.19-4.152 22.397-3.099-.168-2.656-17.263-4.666-25.555-.247-1.565-.603-3.309-1.886-4.183-1.726-1.176-4.005-.098-5.804.96-2.925 1.725-4.526 3.397-7.507 5.012-.829.448-1.952.851-2.594.154-.465-.504-.384-1.308-.216-1.979.823-3.259 2.942-5.986 4.334-9.032.591-1.291.898-3.712.397-5.042-.752-1.991-4.524-2.567-6.573-2.861-7.009-1.011-11.145-1.101-18.152-2.111-1.199-.174-4.827-1.151-3.155-2.979.624-.683 2.702-.706 3.568-.89 1.327-.283 2.857-.311 4.184-.605 5.193-1.151 7.369-1.106 12.527-2.411 1.983-.501 6.523-1.615 7.63-3.387 1.186-1.898.866-5.252-.029-7.316-.896-2.063-3.257-4.241-3.637-6.467-.098-.568-.103-1.232.307-1.626.396-.381 1.015-.348 1.544-.23 2.664.582 3.736 2.45 6.197 3.656 2.461 1.207 5.609 1.512 7.209-.761.573-.812.812-1.82 1.013-2.803 1.611-7.892 1.5-16.123 3.621-23.883l.004-.006zm-100-146l.024-.092c.154-.566.372-1.187.884-1.445 1.256-.63 2.111 1.397 2.166 2.836a86.65 86.65 0 002.74 18.578c.804 3.077 2.141 6.51 5.074 7.51 4.616 1.575 10.083-5.99 12.296-4.044 1.444 1.165-1.627 6.291-2.978 8.777-1.078 3.49-1.363 7.134 1.318 9.177 2.68 2.041 4.244 1.675 7.519 2.307 4.678.905 9.703.83 14.313 2.05 1.095.29 2.488 1.215 1.956 2.248-.237.456-1.042 1.296-1.525 1.436-4.626 1.355-9.268.818-14.03 1.5-4.331.622-8.08 1.622-9.551 5.871-1.314 3.794 1.627 8.593 3.394 12.187.238.487.467 1.075.217 1.557-.375.728-1.783.688-2.505.341-2.235-1.078-3.638-3.082-5.678-4.513-2.041-1.43-3.609-2.41-5.87-1.385-2.515 1.14-3.527 4.247-3.928 7.052-1.02 7.114-.114 22.19-4.152 22.397-3.099-.168-2.656-17.263-4.666-25.555-.247-1.565-.603-3.31-1.886-4.183-1.726-1.176-4.005-.098-5.804.96-2.925 1.725-4.526 3.396-7.507 5.012-.829.448-1.952.851-2.594.154-.465-.504-.384-1.308-.216-1.98.823-3.258 2.942-5.985 4.334-9.031.591-1.29.898-3.712.397-5.042-.752-1.99-4.524-2.567-6.573-2.861-7.009-1.011-11.145-1.1-18.152-2.111-1.199-.174-4.827-1.151-3.155-2.98.624-.682 2.702-.705 3.568-.89 1.327-.282 2.857-.31 4.184-.604 5.193-1.15 7.369-1.106 12.527-2.41 1.983-.502 6.523-1.616 7.63-3.388 1.186-1.898.866-5.252-.029-7.316-.896-2.063-3.257-4.241-3.637-6.467-.098-.568-.103-1.232.307-1.626.396-.381 1.015-.348 1.544-.23 2.664.582 3.736 2.45 6.197 3.656 2.461 1.207 5.609 1.512 7.209-.761.573-.812.812-1.82 1.013-2.803 1.611-7.892 1.5-16.123 3.621-23.883l.004-.006zm0 106l.024-.092c.154-.566.372-1.187.884-1.445 1.256-.63 2.111 1.397 2.166 2.836a86.65 86.65 0 002.74 18.578c.804 3.077 2.141 6.51 5.074 7.51 4.616 1.575 10.083-5.99 12.296-4.043 1.444 1.164-1.627 6.29-2.978 8.776-1.078 3.49-1.363 7.134 1.318 9.177 2.68 2.041 4.244 1.675 7.519 2.307 4.678.905 9.703.829 14.313 2.05 1.095.291 2.488 1.215 1.956 2.248-.237.456-1.042 1.296-1.525 1.436-4.626 1.355-9.268.818-14.03 1.501-4.331.621-8.08 1.621-9.551 5.87-1.314 3.794 1.627 8.593 3.394 12.187.238.487.467 1.075.217 1.557-.375.728-1.783.688-2.505.341-2.235-1.078-3.638-3.082-5.678-4.513-2.041-1.43-3.609-2.41-5.87-1.385-2.515 1.139-3.527 4.247-3.928 7.052-1.02 7.114-.114 22.19-4.152 22.397-3.099-.168-2.656-17.263-4.666-25.555-.247-1.565-.603-3.309-1.886-4.183-1.726-1.176-4.005-.098-5.804.96-2.925 1.725-4.526 3.397-7.507 5.012-.829.448-1.952.851-2.594.154-.465-.504-.384-1.308-.216-1.979.823-3.259 2.942-5.986 4.334-9.032.591-1.291.898-3.712.397-5.042-.752-1.991-4.524-2.567-6.573-2.861-7.009-1.011-11.145-1.101-18.152-2.111-1.199-.174-4.827-1.151-3.155-2.979.624-.683 2.702-.706 3.568-.89 1.327-.283 2.857-.311 4.184-.605 5.193-1.151 7.369-1.106 12.527-2.411 1.983-.5 6.523-1.615 7.63-3.387 1.186-1.898.866-5.252-.029-7.316-.896-2.063-3.257-4.241-3.637-6.467-.098-.568-.103-1.232.307-1.626.396-.381 1.015-.348 1.544-.23 2.664.582 3.736 2.45 6.197 3.656 2.461 1.207 5.609 1.512 7.209-.761.573-.812.812-1.82 1.013-2.803 1.611-7.892 1.5-16.123 3.621-23.883l.004-.006zm-100 66l.024-.092c.154-.566.372-1.187.884-1.445 1.256-.63 2.111 1.397 2.166 2.836a86.645 86.645 0 002.74 18.578c.804 3.077 2.141 6.51 5.074 7.509 4.616 1.576 10.083-5.988 12.296-4.043 1.444 1.165-1.627 6.291-2.978 8.777-1.078 3.49-1.363 7.134 1.318 9.177 2.68 2.041 4.244 1.675 7.519 2.307 4.678.905 9.703.829 14.313 2.05 1.095.291 2.488 1.215 1.956 2.248-.237.456-1.042 1.296-1.525 1.436-4.626 1.355-9.268.818-14.03 1.501-4.331.621-8.08 1.621-9.551 5.87-1.314 3.794 1.627 8.593 3.394 12.187.238.487.467 1.075.217 1.557-.375.728-1.783.688-2.505.341-2.235-1.078-3.638-3.082-5.678-4.513-2.041-1.43-3.609-2.41-5.87-1.385-2.515 1.139-3.527 4.247-3.928 7.052-1.02 7.114-.114 22.19-4.152 22.397-3.099-.168-2.656-17.263-4.666-25.555-.247-1.565-.603-3.309-1.886-4.183-1.726-1.176-4.005-.098-5.804.96-2.925 1.725-4.526 3.397-7.507 5.012-.829.448-1.952.851-2.594.154-.465-.504-.384-1.308-.216-1.979.823-3.259 2.942-5.986 4.334-9.032.591-1.291.898-3.712.397-5.042-.752-1.991-4.524-2.567-6.573-2.861-7.009-1.011-11.145-1.101-18.152-2.111-1.199-.174-4.827-1.151-3.155-2.979.624-.683 2.702-.706 3.568-.89 1.327-.283 2.857-.311 4.184-.605 5.193-1.151 7.369-1.106 12.527-2.411 1.983-.501 6.523-1.615 7.63-3.387 1.186-1.898.866-5.252-.029-7.316-.896-2.063-3.257-4.241-3.637-6.467-.098-.568-.103-1.232.307-1.626.396-.381 1.015-.348 1.544-.23 2.664.582 3.736 2.45 6.197 3.656 2.461 1.207 5.609 1.512 7.209-.761.573-.812.812-1.82 1.013-2.803 1.611-7.892 1.5-16.123 3.621-23.883l.004-.006zm0-106l.024-.092c.154-.566.372-1.187.884-1.445 1.256-.63 2.111 1.397 2.166 2.836a86.65 86.65 0 002.74 18.578c.804 3.077 2.141 6.51 5.074 7.51 4.616 1.575 10.083-5.99 12.296-4.044 1.444 1.165-1.627 6.291-2.978 8.777-1.078 3.49-1.363 7.134 1.318 9.177 2.68 2.041 4.244 1.675 7.519 2.307 4.678.905 9.703.83 14.313 2.05 1.095.29 2.488 1.215 1.956 2.248-.237.456-1.042 1.296-1.525 1.436-4.626 1.355-9.268.818-14.03 1.5-4.331.622-8.08 1.622-9.551 5.871-1.314 3.794 1.627 8.593 3.394 12.187.238.487.467 1.075.217 1.557-.375.728-1.783.688-2.505.341-2.235-1.078-3.638-3.082-5.678-4.513-2.041-1.43-3.609-2.41-5.87-1.385-2.515 1.14-3.527 4.247-3.928 7.052-1.02 7.114-.114 22.19-4.152 22.397-3.099-.168-2.656-17.263-4.666-25.555-.247-1.565-.603-3.31-1.886-4.183-1.726-1.176-4.005-.098-5.804.96-2.925 1.725-4.526 3.397-7.507 5.012-.829.448-1.952.851-2.594.154-.465-.504-.384-1.308-.216-1.98.823-3.258 2.942-5.985 4.334-9.031.591-1.29.898-3.712.397-5.042-.752-1.99-4.524-2.567-6.573-2.861-7.009-1.011-11.145-1.1-18.152-2.111-1.199-.174-4.827-1.151-3.155-2.98.624-.682 2.702-.705 3.568-.89 1.327-.282 2.857-.31 4.184-.604 5.193-1.15 7.369-1.106 12.527-2.41 1.983-.502 6.523-1.616 7.63-3.388 1.186-1.898.866-5.252-.029-7.316-.896-2.063-3.257-4.241-3.637-6.467-.098-.568-.103-1.232.307-1.626.396-.381 1.015-.348 1.544-.23 2.664.582 3.736 2.45 6.197 3.656 2.461 1.207 5.609 1.512 7.209-.761.573-.812.812-1.82 1.013-2.803 1.611-7.892 1.5-16.123 3.621-23.883l.004-.006zm0-106l.024-.092c.154-.566.372-1.187.884-1.445 1.256-.63 2.111 1.397 2.166 2.836a86.65 86.65 0 002.74 18.579c.804 3.076 2.141 6.509 5.074 7.508 4.616 1.576 10.083-5.988 12.296-4.042 1.444 1.164-1.627 6.29-2.978 8.776-1.078 3.49-1.363 7.134 1.318 9.177 2.68 2.041 4.244 1.675 7.519 2.307 4.678.905 9.703.83 14.313 2.05 1.095.29 2.488 1.215 1.956 2.248-.237.456-1.042 1.296-1.525 1.436-4.626 1.355-9.268.817-14.03 1.5-4.331.622-8.08 1.622-9.551 5.871-1.314 3.794 1.627 8.593 3.394 12.187.238.487.467 1.075.217 1.557-.375.728-1.783.688-2.505.341-2.235-1.078-3.638-3.082-5.678-4.513-2.041-1.43-3.609-2.41-5.87-1.385-2.515 1.14-3.527 4.247-3.928 7.052-1.02 7.114-.114 22.19-4.152 22.397-3.099-.168-2.656-17.263-4.666-25.555-.247-1.565-.603-3.31-1.886-4.183-1.726-1.176-4.005-.098-5.804.96-2.925 1.725-4.526 3.396-7.507 5.012-.829.448-1.952.851-2.594.154-.465-.504-.384-1.308-.216-1.98.823-3.258 2.942-5.985 4.334-9.031.591-1.29.898-3.712.397-5.042-.752-1.99-4.524-2.568-6.573-2.861-7.009-1.011-11.145-1.1-18.152-2.111-1.199-.174-4.827-1.151-3.155-2.98.624-.682 2.702-.705 3.568-.89 1.327-.282 2.857-.31 4.184-.604 5.193-1.15 7.369-1.106 12.527-2.41 1.983-.502 6.523-1.616 7.63-3.388 1.186-1.898.866-5.252-.029-7.316-.896-2.063-3.257-4.241-3.637-6.467-.098-.568-.103-1.232.307-1.626.396-.381 1.015-.348 1.544-.23 2.664.582 3.736 2.45 6.197 3.656 2.461 1.207 5.609 1.512 7.209-.761.573-.812.812-1.82 1.013-2.803 1.611-7.892 1.5-16.123 3.621-23.883l.004-.006zm-100 172l.024-.092c.154-.566.372-1.187.884-1.445 1.256-.63 2.111 1.397 2.166 2.836a86.641 86.641 0 002.74 18.578c.804 3.077 2.141 6.51 5.074 7.509 4.616 1.576 10.083-5.988 12.296-4.043 1.444 1.165-1.627 6.291-2.978 8.777-1.078 3.49-1.363 7.134 1.318 9.177 2.68 2.041 4.244 1.675 7.519 2.307 4.678.905 9.703.829 14.313 2.05 1.095.291 2.488 1.215 1.956 2.248-.237.456-1.042 1.296-1.525 1.436-4.626 1.355-9.268.818-14.03 1.501-4.331.621-8.08 1.621-9.551 5.87-1.314 3.794 1.627 8.593 3.394 12.187.238.487.467 1.075.217 1.557-.375.728-1.783.688-2.505.341-2.235-1.078-3.638-3.082-5.678-4.513-2.041-1.43-3.609-2.41-5.87-1.385-2.515 1.139-3.527 4.247-3.928 7.052-1.02 7.114-.114 22.19-4.152 22.397-3.099-.168-2.656-17.263-4.666-25.555-.247-1.565-.603-3.309-1.886-4.183-1.726-1.176-4.005-.098-5.804.96-2.925 1.725-4.526 3.397-7.507 5.012-.829.448-1.952.851-2.594.154-.465-.504-.384-1.308-.216-1.979.823-3.259 2.942-5.986 4.334-9.032.591-1.291.898-3.712.397-5.042-.752-1.991-4.524-2.567-6.573-2.861-7.009-1.011-11.145-1.101-18.152-2.111-1.199-.174-4.827-1.151-3.155-2.979.624-.683 2.702-.706 3.568-.89 1.327-.283 2.857-.311 4.184-.605 5.193-1.151 7.369-1.106 12.527-2.411 1.983-.501 6.523-1.615 7.63-3.387 1.186-1.898.866-5.252-.029-7.316-.896-2.063-3.257-4.241-3.637-6.467-.098-.568-.103-1.232.307-1.626.396-.381 1.015-.348 1.544-.23 2.664.582 3.736 2.45 6.197 3.656 2.461 1.207 5.609 1.512 7.209-.761.573-.812.812-1.82 1.013-2.803 1.611-7.892 1.5-16.123 3.621-23.883l.004-.006zm0-106l.024-.092c.154-.566.372-1.187.884-1.445 1.256-.63 2.111 1.397 2.166 2.836a86.65 86.65 0 002.74 18.578c.804 3.077 2.141 6.51 5.074 7.51 4.616 1.575 10.083-5.99 12.296-4.044 1.444 1.165-1.627 6.291-2.978 8.777-1.078 3.49-1.363 7.134 1.318 9.177 2.68 2.041 4.244 1.675 7.519 2.307 4.678.905 9.703.83 14.313 2.05 1.095.29 2.488 1.215 1.956 2.248-.237.456-1.042 1.296-1.525 1.436-4.626 1.355-9.268.818-14.03 1.5-4.331.622-8.08 1.622-9.551 5.871-1.314 3.794 1.627 8.593 3.394 12.187.238.487.467 1.075.217 1.557-.375.728-1.783.688-2.505.341-2.235-1.078-3.638-3.082-5.678-4.513-2.041-1.43-3.609-2.41-5.87-1.385-2.515 1.14-3.527 4.247-3.928 7.052-1.02 7.114-.114 22.19-4.152 22.397-3.099-.168-2.656-17.263-4.666-25.555-.247-1.565-.603-3.31-1.886-4.183-1.726-1.176-4.005-.098-5.804.96-2.925 1.725-4.526 3.396-7.507 5.012-.829.448-1.952.851-2.594.154-.465-.504-.384-1.308-.216-1.98.823-3.258 2.942-5.985 4.334-9.031.591-1.29.898-3.712.397-5.042-.752-1.99-4.524-2.568-6.573-2.861-7.009-1.011-11.145-1.1-18.152-2.111-1.199-.174-4.827-1.151-3.155-2.98.624-.682 2.702-.705 3.568-.89 1.327-.282 2.857-.31 4.184-.604 5.193-1.15 7.369-1.106 12.527-2.41 1.983-.502 6.523-1.616 7.63-3.388 1.186-1.899.866-5.252-.029-7.316-.896-2.063-3.257-4.241-3.637-6.467-.098-.568-.103-1.232.307-1.626.396-.381 1.015-.348 1.544-.23 2.664.582 3.736 2.45 6.197 3.656 2.461 1.207 5.609 1.512 7.209-.761.573-.812.812-1.82 1.013-2.803 1.611-7.892 1.5-16.123 3.621-23.883l.004-.006zm-100 66l.024-.092c.154-.566.372-1.187.884-1.445 1.256-.63 2.111 1.397 2.166 2.836a86.65 86.65 0 002.74 18.578c.804 3.077 2.141 6.51 5.074 7.51 4.616 1.575 10.083-5.99 12.296-4.043 1.444 1.164-1.627 6.29-2.978 8.776-1.078 3.49-1.363 7.134 1.318 9.177 2.68 2.041 4.244 1.675 7.519 2.307 4.678.905 9.703.83 14.313 2.05 1.095.29 2.488 1.215 1.956 2.248-.237.456-1.042 1.296-1.525 1.436-4.626 1.355-9.268.818-14.03 1.5-4.331.622-8.08 1.622-9.551 5.871-1.314 3.794 1.627 8.593 3.394 12.187.238.487.467 1.075.217 1.557-.375.728-1.783.688-2.505.341-2.235-1.078-3.638-3.082-5.678-4.513-2.041-1.43-3.609-2.41-5.87-1.385-2.515 1.139-3.527 4.247-3.928 7.052-1.02 7.114-.114 22.19-4.152 22.397-3.099-.168-2.656-17.263-4.666-25.555-.247-1.565-.603-3.309-1.886-4.183-1.726-1.176-4.005-.098-5.804.96-2.925 1.725-4.526 3.397-7.507 5.012-.829.448-1.952.851-2.594.154-.465-.504-.384-1.308-.216-1.979.823-3.259 2.942-5.986 4.334-9.032.591-1.291.898-3.712.397-5.042-.752-1.99-4.524-2.567-6.573-2.861-7.009-1.011-11.145-1.1-18.152-2.111-1.199-.174-4.827-1.151-3.155-2.98.624-.682 2.702-.705 3.568-.89 1.327-.282 2.857-.31 4.184-.604 5.193-1.15 7.369-1.106 12.527-2.41 1.983-.502 6.523-1.616 7.63-3.388 1.186-1.898.866-5.252-.029-7.316-.896-2.063-3.257-4.241-3.637-6.467-.098-.568-.103-1.232.307-1.626.396-.381 1.015-.348 1.544-.23 2.664.582 3.736 2.45 6.197 3.656 2.461 1.207 5.609 1.512 7.209-.761.573-.812.812-1.82 1.013-2.803 1.611-7.892 1.5-16.123 3.621-23.883l.004-.006zm0-106l.024-.092c.154-.566.372-1.187.884-1.445 1.256-.63 2.111 1.397 2.166 2.836a86.65 86.65 0 002.74 18.578c.804 3.077 2.141 6.51 5.074 7.51 4.616 1.575 10.083-5.99 12.296-4.044 1.444 1.165-1.627 6.291-2.978 8.777-1.078 3.49-1.363 7.134 1.318 9.177 2.68 2.041 4.244 1.675 7.519 2.307 4.678.905 9.703.83 14.313 2.05 1.095.29 2.488 1.215 1.956 2.248-.237.456-1.042 1.296-1.525 1.436-4.626 1.355-9.268.817-14.03 1.5-4.331.622-8.08 1.622-9.551 5.871-1.314 3.794 1.627 8.593 3.394 12.187.238.487.467 1.075.217 1.557-.375.728-1.783.688-2.505.341-2.235-1.078-3.638-3.082-5.678-4.513-2.041-1.43-3.609-2.41-5.87-1.385-2.515 1.14-3.527 4.247-3.928 7.052-1.02 7.114-.114 22.19-4.152 22.397-3.099-.168-2.656-17.263-4.666-25.555-.247-1.565-.603-3.31-1.886-4.183-1.726-1.176-4.005-.098-5.804.96-2.925 1.725-4.526 3.397-7.507 5.012-.829.448-1.952.851-2.594.154-.465-.504-.384-1.308-.216-1.98.823-3.258 2.942-5.985 4.334-9.031.591-1.29.898-3.712.397-5.042-.752-1.99-4.524-2.567-6.573-2.862-7.009-1.01-11.145-1.1-18.152-2.11-1.199-.174-4.827-1.151-3.155-2.98.624-.682 2.702-.705 3.568-.89 1.327-.282 2.857-.31 4.184-.604 5.193-1.15 7.369-1.106 12.527-2.41 1.983-.502 6.523-1.616 7.63-3.388 1.186-1.899.866-5.252-.029-7.316-.896-2.063-3.257-4.241-3.637-6.467-.098-.568-.103-1.232.307-1.626.396-.381 1.015-.348 1.544-.23 2.664.582 3.736 2.45 6.197 3.656 2.461 1.207 5.609 1.512 7.209-.761.573-.812.812-1.82 1.013-2.803 1.611-7.892 1.5-16.123 3.621-23.883l.004-.006zm-100.001 66c.01-.03.017-.061.025-.092.154-.566.372-1.187.884-1.445 1.256-.63 2.111 1.397 2.166 2.836a86.707 86.707 0 002.74 18.578c.804 3.077 2.141 6.51 5.074 7.51 4.616 1.575 10.083-5.99 12.296-4.044 1.444 1.165-1.627 6.291-2.978 8.777-1.078 3.49-1.363 7.134 1.318 9.177 2.68 2.041 4.244 1.675 7.519 2.307 4.678.905 9.703.83 14.313 2.05 1.095.29 2.488 1.215 1.956 2.248-.237.456-1.042 1.296-1.525 1.436-4.626 1.355-9.268.817-14.03 1.5-4.331.622-8.08 1.622-9.551 5.871-1.314 3.794 1.627 8.593 3.394 12.187.238.487.467 1.075.217 1.557-.375.728-1.783.688-2.505.341-2.235-1.078-3.638-3.082-5.678-4.513-2.041-1.43-3.609-2.41-5.87-1.385-2.515 1.14-3.527 4.247-3.928 7.052-1.02 7.114-.114 22.19-4.152 22.397-3.099-.168-2.656-17.263-4.666-25.555-.247-1.565-.603-3.31-1.886-4.183-1.726-1.176-4.005-.098-5.804.96-2.925 1.725-4.526 3.397-7.508 5.012-.828.448-1.951.851-2.593.154-.465-.504-.384-1.308-.216-1.98.823-3.258 2.942-5.985 4.334-9.031.591-1.29.898-3.712.397-5.042-.752-1.99-4.524-2.568-6.573-2.861-7.008-1.011-11.145-1.1-18.152-2.111-1.2-.174-4.827-1.151-3.155-2.98.624-.682 2.702-.705 3.568-.89 1.327-.282 2.857-.31 4.184-.604 5.193-1.15 7.368-1.106 12.527-2.41 1.983-.502 6.523-1.616 7.63-3.388 1.186-1.898.866-5.252-.03-7.316-.895-2.063-3.256-4.241-3.636-6.467-.098-.568-.103-1.232.307-1.626.396-.381 1.014-.348 1.544-.23 2.664.582 3.736 2.45 6.197 3.656 2.461 1.207 5.609 1.512 7.21-.761.572-.812.81-1.82 1.012-2.803 1.61-7.892 1.5-16.123 3.621-23.883l.004-.006zm0 106c.01-.031.017-.061.025-.092.154-.566.372-1.187.884-1.445 1.256-.63 2.111 1.397 2.166 2.836a86.701 86.701 0 002.74 18.578c.804 3.077 2.141 6.51 5.074 7.509 4.616 1.576 10.083-5.988 12.296-4.043 1.444 1.165-1.627 6.291-2.978 8.777-1.078 3.49-1.363 7.134 1.318 9.177 2.68 2.041 4.244 1.675 7.519 2.307 4.678.905 9.703.829 14.313 2.05 1.095.291 2.488 1.215 1.956 2.248-.237.456-1.042 1.296-1.525 1.436-4.626 1.355-9.268.818-14.03 1.501-4.331.621-8.08 1.621-9.551 5.87-1.314 3.794 1.627 8.593 3.394 12.187.238.487.467 1.075.217 1.557-.375.728-1.783.688-2.505.341-2.235-1.078-3.638-3.082-5.678-4.513-2.041-1.43-3.609-2.41-5.87-1.385-2.515 1.139-3.527 4.247-3.928 7.052-1.02 7.114-.114 22.19-4.152 22.397-3.099-.168-2.656-17.263-4.666-25.555-.247-1.565-.603-3.309-1.886-4.183-1.726-1.176-4.005-.098-5.804.96-2.925 1.725-4.526 3.397-7.508 5.012-.828.448-1.951.851-2.593.154-.465-.504-.384-1.308-.216-1.979.823-3.259 2.942-5.986 4.334-9.032.591-1.291.898-3.712.397-5.042-.752-1.991-4.524-2.567-6.573-2.861-7.008-1.011-11.145-1.101-18.152-2.111-1.2-.174-4.827-1.151-3.155-2.979.624-.683 2.702-.706 3.568-.89 1.327-.283 2.857-.311 4.184-.605 5.193-1.151 7.368-1.106 12.527-2.411 1.983-.501 6.523-1.615 7.63-3.387 1.186-1.898.866-5.252-.03-7.316-.895-2.063-3.256-4.241-3.636-6.467-.098-.568-.103-1.232.307-1.626.396-.381 1.014-.348 1.544-.23 2.664.582 3.736 2.45 6.197 3.656 2.461 1.207 5.609 1.512 7.21-.761.572-.812.81-1.82 1.012-2.803 1.61-7.892 1.5-16.123 3.621-23.883l.004-.006zm-100-146c.01-.03.017-.062.025-.092.154-.566.372-1.187.884-1.445 1.256-.63 2.111 1.397 2.166 2.836a86.728 86.728 0 002.74 18.578c.804 3.077 2.141 6.51 5.074 7.51 4.616 1.575 10.083-5.99 12.296-4.043 1.444 1.164-1.627 6.29-2.978 8.776-1.078 3.49-1.363 7.134 1.318 9.177 2.68 2.041 4.244 1.675 7.52 2.307 4.677.905 9.702.83 14.312 2.05 1.095.29 2.488 1.215 1.956 2.248-.236.456-1.042 1.296-1.525 1.436-4.626 1.355-9.268.817-14.03 1.5-4.331.622-8.08 1.622-9.551 5.871-1.314 3.794 1.627 8.593 3.394 12.187.238.487.467 1.075.217 1.557-.375.728-1.783.688-2.505.341-2.235-1.078-3.638-3.082-5.678-4.513-2.04-1.43-3.61-2.41-5.87-1.385C1.82 29.69.808 32.798.407 35.603-.613 42.717.293 57.793-3.745 58-6.844 57.832-6.4 40.737-8.41 32.445c-.247-1.565-.603-3.31-1.886-4.183-1.726-1.176-4.005-.098-5.804.96-2.925 1.725-4.526 3.396-7.508 5.012-.828.448-1.951.851-2.593.154-.465-.504-.384-1.308-.215-1.98.822-3.258 2.94-5.985 4.333-9.031.591-1.29.898-3.712.396-5.042-.751-1.99-4.523-2.568-6.572-2.862-7.009-1.01-11.145-1.1-18.152-2.11-1.2-.174-4.827-1.151-3.155-2.98.624-.682 2.702-.705 3.568-.89 1.327-.282 2.857-.31 4.184-.604 5.193-1.15 7.368-1.106 12.527-2.41 1.983-.502 6.523-1.616 7.63-3.388 1.186-1.898.866-5.252-.03-7.316-.895-2.063-3.256-4.241-3.636-6.467-.098-.568-.103-1.232.307-1.626.396-.381 1.014-.348 1.544-.23 2.664.582 3.736 2.45 6.197 3.656 2.461 1.207 5.609 1.512 7.21-.761.572-.812.81-1.82 1.012-2.803 1.61-7.892 1.5-16.123 3.621-23.883l.004-.006zm0 106c.01-.03.017-.061.025-.092.154-.566.372-1.187.884-1.445 1.256-.63 2.111 1.397 2.166 2.836a86.728 86.728 0 002.74 18.579c.804 3.076 2.141 6.509 5.074 7.508 4.616 1.576 10.083-5.988 12.296-4.042 1.444 1.164-1.627 6.29-2.978 8.776-1.078 3.49-1.363 7.134 1.318 9.177 2.68 2.041 4.244 1.675 7.52 2.307 4.677.905 9.702.829 14.312 2.05 1.095.291 2.488 1.215 1.956 2.248-.236.456-1.042 1.296-1.525 1.436-4.626 1.355-9.268.818-14.03 1.501-4.331.621-8.08 1.621-9.551 5.87-1.314 3.794 1.627 8.593 3.394 12.187.238.487.467 1.075.217 1.557-.375.728-1.783.688-2.505.341-2.235-1.078-3.638-3.082-5.678-4.513-2.04-1.43-3.61-2.41-5.87-1.385-2.515 1.139-3.527 4.247-3.928 7.052-1.02 7.114-.114 22.19-4.152 22.397-3.099-.168-2.656-17.263-4.666-25.555-.247-1.565-.603-3.309-1.886-4.183-1.726-1.176-4.005-.098-5.804.96-2.925 1.725-4.526 3.397-7.508 5.012-.828.448-1.951.851-2.593.154-.465-.504-.384-1.308-.215-1.979.822-3.259 2.94-5.986 4.333-9.032.591-1.291.898-3.712.396-5.042-.751-1.991-4.523-2.567-6.572-2.861-7.009-1.011-11.145-1.101-18.152-2.111-1.2-.174-4.827-1.151-3.155-2.979.624-.683 2.702-.706 3.568-.89 1.327-.283 2.857-.311 4.184-.605 5.193-1.151 7.368-1.106 12.527-2.411 1.983-.501 6.523-1.615 7.63-3.387 1.186-1.898.866-5.252-.03-7.316-.895-2.063-3.256-4.241-3.636-6.467-.098-.568-.103-1.232.307-1.626.396-.381 1.014-.348 1.544-.23 2.664.582 3.736 2.45 6.197 3.656 2.461 1.207 5.609 1.512 7.21-.761.572-.812.81-1.82 1.012-2.803 1.61-7.892 1.5-16.123 3.621-23.883l.004-.006zm1000.001-130l.024-.092c.154-.566.372-1.187.884-1.445 1.256-.63 2.111 1.397 2.166 2.836a86.958 86.958 0 002.735 18.578c.81 3.077 2.15 6.51 5.08 7.51 4.61 1.575 10.08-5.99 12.3-4.044 1.44 1.165-1.63 6.291-2.98 8.777-1.08 3.49-1.37 7.134 1.32 9.177 2.68 2.041 4.24 1.675 7.51 2.307 4.68.905 9.71.83 14.32 2.05 1.09.29 2.49 1.215 1.95 2.248-.23.456-1.04 1.296-1.52 1.436-4.63 1.355-9.27.817-14.03 1.5-4.33.622-8.08 1.622-9.55 5.871-1.32 3.794 1.62 8.593 3.39 12.187.24.487.47 1.075.22 1.557-.38.728-1.78.688-2.51.341-2.23-1.078-3.64-3.082-5.68-4.513-2.04-1.43-3.6-2.41-5.86-1.385-2.52 1.14-3.53 4.247-3.93 7.052-1.023 7.114-.12 22.19-4.155 22.397-3.099-.168-2.656-17.263-4.666-25.555-.247-1.565-.603-3.31-1.886-4.183-1.726-1.176-4.005-.098-5.804.96-2.925 1.725-4.526 3.397-7.507 5.012-.829.448-1.952.851-2.594.154-.465-.504-.384-1.308-.216-1.98.823-3.258 2.942-5.985 4.334-9.031.591-1.29.898-3.712.397-5.042-.752-1.99-4.524-2.567-6.573-2.861-7.009-1.011-11.145-1.1-18.152-2.111-1.199-.174-4.827-1.151-3.155-2.98.624-.682 2.702-.705 3.568-.89 1.327-.282 2.857-.31 4.184-.604 5.193-1.15 7.369-1.106 12.527-2.41 1.983-.502 6.523-1.616 7.63-3.388 1.186-1.899.866-5.252-.029-7.316-.896-2.063-3.257-4.241-3.637-6.467-.098-.568-.103-1.232.307-1.626.396-.381 1.015-.348 1.544-.23 2.664.582 3.736 2.45 6.197 3.656 2.461 1.207 5.609 1.512 7.209-.761.573-.812.812-1.82 1.013-2.803 1.611-7.892 1.5-16.123 3.621-23.883l.004-.006zm-800 210l.024-.092c.154-.566.372-1.187.884-1.445 1.256-.63 2.111 1.397 2.166 2.836a86.645 86.645 0 002.74 18.578c.804 3.077 2.141 6.51 5.074 7.509 4.616 1.576 10.083-5.988 12.296-4.043 1.444 1.165-1.627 6.291-2.978 8.777-1.078 3.49-1.363 7.134 1.318 9.177 2.68 2.041 4.244 1.675 7.519 2.307 4.678.905 9.703.829 14.313 2.05 1.095.291 2.488 1.215 1.956 2.248-.237.456-1.042 1.296-1.525 1.436-4.626 1.355-9.268.818-14.03 1.501-4.331.621-8.08 1.621-9.551 5.87-1.314 3.794 1.627 8.593 3.394 12.187.238.487.467 1.075.217 1.557-.375.728-1.783.688-2.505.341-2.235-1.078-3.638-3.082-5.678-4.513-2.041-1.43-3.609-2.41-5.87-1.385-2.515 1.139-3.527 4.247-3.928 7.052-1.02 7.114-.114 22.19-4.152 22.397-3.099-.168-2.656-17.263-4.666-25.555-.247-1.565-.603-3.309-1.886-4.183-1.726-1.176-4.005-.098-5.804.96-2.925 1.725-4.526 3.397-7.507 5.012-.829.448-1.952.851-2.594.154-.465-.504-.384-1.308-.216-1.979.823-3.259 2.942-5.986 4.334-9.032.591-1.291.898-3.712.397-5.042-.752-1.991-4.524-2.567-6.573-2.861-7.009-1.011-11.145-1.101-18.152-2.111-1.199-.174-4.827-1.151-3.155-2.979.624-.683 2.702-.706 3.568-.89 1.327-.283 2.857-.311 4.184-.605 5.193-1.151 7.369-1.106 12.527-2.411 1.983-.501 6.523-1.615 7.63-3.387 1.186-1.898.866-5.252-.029-7.316-.896-2.063-3.257-4.241-3.637-6.467-.098-.568-.103-1.232.307-1.626.396-.381 1.015-.348 1.544-.23 2.664.582 3.736 2.45 6.197 3.656 2.461 1.207 5.609 1.512 7.209-.761.573-.812.812-1.82 1.013-2.803 1.611-7.892 1.5-16.123 3.621-23.883l.004-.006z"/></g><defs><clipPath id="clip0_509_15191"><path fill="#fff" transform="translate(0 -64)" d="M0 0h1920v281H0z"/></clipPath></defs></svg>