<svg width="24" height="24" viewBox="0 0 24 24" fill="none" xmlns="http://www.w3.org/2000/svg"><g clip-path="url(#clip0_4001_5836)"><path d="M12 0c6.627 0 12 5.373 12 12s-5.373 12-12 12S0 18.627 0 12 5.373 0 12 0zm4.906 7.225c-.451.008-1.144.249-4.476 1.634-1.168.486-3.5 1.49-6.998 3.014-.568.226-.866.447-.893.663-.052.415.545.545 1.297.79.613.198 1.437.431 1.865.44.389.009.823-.152 1.302-.48 3.268-2.207 4.956-3.323 5.062-3.347.074-.016.177-.037.248.025.07.062.063.18.056.212-.06.253-3.126 3.042-3.306 3.23-.676.7-1.444 1.13-.26 1.911 1.026.676 1.622 1.107 2.678 1.8.675.442 1.205.966 1.902.902.32-.03.652-.332.82-1.23.398-2.126 1.179-6.73 1.36-8.628a2.115 2.115 0 00-.021-.473.507.507 0 00-.17-.325c-.145-.116-.367-.14-.466-.138z" fill="currentColor"/></g><defs><clipPath id="clip0_4001_5836"><path fill="#fff" d="M0 0h24v24H0z"/></clipPath></defs></svg>